<?xml version="1.0" encoding="UTF-8" standalone="no"?>
<!DOCTYPE svg PUBLIC "-//W3C//DTD SVG 1.1//EN" "http://www.w3.org/Graphics/SVG/1.1/DTD/svg11.dtd">
<svg xmlns="http://www.w3.org/2000/svg" version="1.1" viewBox="0.00 0.00 1717.00 1221.00">
    <g stroke-width="2.00" fill="none" stroke-linecap="butt">
        <path stroke="#86b1da" vector-effect="non-scaling-stroke" d="
  M 943.63 0.00
  Q 970.30 26.14 980.69 37.31
  C 1038.77 99.77 1089.44 168.36 1135.95 240.30
  Q 1195.08 331.76 1243.57 427.69
  C 1281.03 501.79 1313.89 578.72 1337.90 658.28
  C 1353.87 711.20 1366.18 767.62 1364.85 823.18
  C 1364.34 844.55 1361.07 866.90 1353.47 886.70
  C 1306.01 1010.25 1190.59 1087.43 1074.84 1138.14
  C 1017.31 1163.34 959.12 1183.23 903.55 1204.29
  Q 885.25 1211.22 867.18 1221.00"
        />
        <path stroke="#e78f8d" vector-effect="non-scaling-stroke" d="
  M 225.80 676.26
  L 237.88 676.26
  A 0.94 0.94 0.0 0 0 238.82 675.32
  L 238.82 639.47
  A 25.97 0.39 -90.0 0 0 238.43 613.50
  L 225.25 613.50
  A 25.97 0.39 90.0 0 0 224.86 639.47
  L 224.86 675.32
  A 0.94 0.94 0.0 0 0 225.80 676.26"
        />
        <path stroke="#e78f8d" vector-effect="non-scaling-stroke" d="
  M 240.93 674.33
  C 240.94 674.83 240.63 675.20 240.78 675.84
  Q 240.87 676.25 241.29 676.25
  L 254.04 676.25
  Q 254.57 676.25 254.57 675.71
  L 254.31 614.00
  Q 254.31 613.50 253.81 613.50
  L 241.52 613.50
  A 0.62 0.62 0.0 0 0 240.90 614.10
  Q 240.08 644.11 240.93 674.33"
        />
        <path stroke="#e78f8d" vector-effect="non-scaling-stroke" d="
  M 313.24 647.06
  L 259.64 647.07
  Q 258.95 647.07 258.96 647.75
  L 259.01 657.49
  A 0.71 0.71 0.0 0 0 259.67 658.20
  L 263.77 658.50"
        />
        <path stroke="#96bdf4" vector-effect="non-scaling-stroke" d="
  M 263.77 658.50
  L 257.38 658.20
  Q 256.84 658.18 256.82 658.71
  L 256.57 664.82
  A 0.66 0.65 3.1 0 0 257.19 665.50
  L 261.71 665.74"
        />
        <path stroke="#e78f8d" vector-effect="non-scaling-stroke" d="
  M 261.71 665.74
  L 261.67 675.73
  Q 261.66 676.24 262.18 676.24
  L 307.40 676.30"
        />
        <path stroke="#f8f4f1" vector-effect="non-scaling-stroke" d="
  M 307.40 676.30
  L 324.00 676.28"
        />
        <path stroke="#86b1da" vector-effect="non-scaling-stroke" d="
  M 324.00 676.28
  L 331.70 673.62"
        />
        <path stroke="#96bdf4" vector-effect="non-scaling-stroke" d="
  M 331.70 673.62
  Q 332.68 674.08 333.05 675.89
  Q 333.16 676.44 333.68 676.24
  L 340.77 673.59
  A 0.45 0.44 70.3 0 0 341.03 673.03
  L 326.74 634.02"
        />
        <path stroke="#cddcf7" vector-effect="non-scaling-stroke" d="
  M 326.74 634.02
  Q 327.19 633.89 327.28 634.27
  Q 327.34 634.52 327.38 634.61
  Q 337.75 655.34 348.53 675.89
  A 0.64 0.63 -27.6 0 0 349.38 676.15
  L 355.83 672.79
  A 0.74 0.74 0.0 0 0 356.15 671.80
  L 333.97 628.99
  Q 333.73 628.52 333.26 628.77
  L 326.23 632.56"
        />
        <path stroke="#96bdf4" vector-effect="non-scaling-stroke" d="
  M 326.23 632.56
  L 324.40 627.69
  Q 324.19 627.13 323.63 627.35
  L 316.12 630.30"
        />
        <path stroke="#86b1da" vector-effect="non-scaling-stroke" d="
  M 316.12 630.30
  Q 315.96 628.45 315.02 627.47
  A 0.78 0.77 -32.1 0 0 314.19 627.29
  L 307.55 629.78
  A 0.55 0.55 0.0 0 0 307.22 630.48
  L 313.24 647.06"
        />
        <path stroke="#247add" vector-effect="non-scaling-stroke" d="
  M 316.12 630.30
  Q 316.72 633.04 317.31 634.69
  Q 322.55 649.27 331.70 673.62"
        />
        <path stroke="#86b1da" vector-effect="non-scaling-stroke" d="
  M 324.00 676.28
  L 313.50 647.63"
        />
        <path stroke="#754c76" vector-effect="non-scaling-stroke" d="
  M 313.50 647.63
  Q 313.18 648.07 313.24 647.06"
        />
        <path stroke="#e78f8d" vector-effect="non-scaling-stroke" d="
  M 307.40 676.30
  Q 307.70 675.14 307.43 674.45
  A 0.60 0.60 0.0 0 0 306.87 674.07
  L 265.16 674.06
  Q 264.50 674.06 264.50 673.41
  L 264.50 668.38
  A 0.62 0.61 -0.0 0 1 265.12 667.77
  L 307.02 667.71
  Q 307.50 667.71 307.50 667.23
  L 307.50 666.18
  Q 307.50 665.52 306.84 665.55
  L 302.34 665.70"
        />
        <path stroke="#96bdf4" vector-effect="non-scaling-stroke" d="
  M 302.34 665.70
  L 302.67 658.18"
        />
        <path stroke="#e78f8d" vector-effect="non-scaling-stroke" d="
  M 313.50 647.63
  Q 313.26 648.31 312.95 648.68
  Q 312.65 649.02 311.91 649.02
  Q 287.60 648.94 263.25 649.06
  Q 262.75 649.06 262.75 649.56
  L 262.75 655.00
  Q 262.75 655.50 263.25 655.50
  L 312.54 655.50
  Q 313.28 655.50 313.21 656.24
  L 313.09 657.72
  Q 313.04 658.24 312.52 658.24
  L 302.67 658.18"
        />
        <path stroke="#855890" vector-effect="non-scaling-stroke" d="
  M 302.67 658.18
  L 263.77 658.50"
        />
        <path stroke="#6ba5f9" vector-effect="non-scaling-stroke" d="
  M 326.23 632.56
  Q 326.25 633.19 326.74 634.02"
        />
        <path stroke="#855890" vector-effect="non-scaling-stroke" d="
  M 302.34 665.70
  L 261.71 665.74"
        />
        <path stroke="#fad296" vector-effect="non-scaling-stroke" d="
  M 169.10 731.59
  L 142.69 752.58"
        />
        <path stroke="#fcd9d4" vector-effect="non-scaling-stroke" d="
  M 142.69 752.58
  L 142.49 750.35
  Q 142.44 749.84 142.79 749.46
  C 146.88 745.02 146.75 740.40 146.20 734.98
  Q 146.04 733.46 144.28 733.58
  Q 143.63 733.62 143.90 733.03
  Q 144.17 732.42 143.85 731.97
  Q 143.57 731.56 143.21 731.91
  L 142.78 732.35
  Q 142.43 732.69 142.11 732.32
  L 139.96 729.79"
        />
        <path stroke="#e78f8d" vector-effect="non-scaling-stroke" d="
  M 139.96 729.79
  C 136.36 726.66 130.91 727.90 126.84 729.52
  C 119.29 732.53 118.15 740.54 121.24 747.59"
        />
        <path stroke="#96bdf4" vector-effect="non-scaling-stroke" d="
  M 121.24 747.59
  Q 120.89 748.76 119.68 749.48"
        />
        <path stroke="#e78f8d" vector-effect="non-scaling-stroke" d="
  M 119.68 749.48
  Q 117.83 749.65 116.46 750.50"
        />
        <path stroke="#fcd9d4" vector-effect="non-scaling-stroke" d="
  M 116.46 750.50
  Q 115.54 750.00 114.53 750.52
  C 104.13 755.80 99.47 768.28 97.14 779.05
  A 0.33 0.32 -25.9 0 0 97.75 779.26
  C 98.91 776.90 99.15 773.94 99.79 771.94
  Q 100.89 768.50 102.39 765.00
  A 0.56 0.56 0.0 0 1 103.47 765.15
  L 103.57 766.03"
        />
        <path stroke="#e78f8d" vector-effect="non-scaling-stroke" d="
  M 103.57 766.03
  Q 100.66 772.38 99.03 779.31
  A 0.90 0.88 -62.3 0 0 99.29 780.17
  C 104.23 784.75 113.30 784.18 119.34 782.93
  A 0.73 0.72 78.8 0 0 119.90 782.08
  C 118.43 774.71 122.47 773.71 124.29 767.98
  C 125.99 762.63 124.63 756.56 122.45 751.53"
        />
        <path stroke="#96bdf4" vector-effect="non-scaling-stroke" d="
  M 122.45 751.53
  L 123.57 749.67"
        />
        <path stroke="#e78f8d" vector-effect="non-scaling-stroke" d="
  M 123.57 749.67
  Q 128.73 754.54 133.83 749.30"
        />
        <path stroke="#fcd9d4" vector-effect="non-scaling-stroke" d="
  M 133.83 749.30
  Q 135.99 751.79 135.32 754.97"
        />
        <path stroke="#fad296" vector-effect="non-scaling-stroke" d="
  M 135.32 754.97
  C 131.84 758.98 131.66 761.59 132.74 767.10
  C 135.05 778.86 131.97 789.47 125.82 799.58
  Q 125.51 800.10 126.08 800.28
  L 129.74 801.49"
        />
        <path stroke="#fcd9d4" vector-effect="non-scaling-stroke" d="
  M 129.74 801.49
  Q 123.57 816.41 118.00 831.46
  Q 116.53 835.42 112.97 839.77
  C 110.42 842.88 104.69 844.15 100.95 845.42
  A 1.21 1.20 89.1 0 0 100.20 846.20
  Q 98.86 850.75 99.00 855.49
  A 0.65 0.65 0.0 0 0 99.52 856.10
  C 100.90 856.37 107.18 856.62 106.78 853.96
  A 0.74 0.73 82.6 0 0 105.98 853.34
  L 103.91 853.54
  Q 103.31 853.60 103.27 853.00
  Q 103.08 850.53 104.75 848.83
  A 1.69 1.68 16.8 0 1 105.61 848.37
  L 112.48 847.05
  A 1.51 1.49 -75.4 0 0 113.37 846.52
  Q 121.87 836.23 130.50 826.04
  Q 133.58 822.39 135.65 818.37
  Q 138.73 812.41 141.71 806.20"
        />
        <path stroke="#fad296" vector-effect="non-scaling-stroke" d="
  M 141.71 806.20
  Q 140.63 814.66 138.01 822.45
  A 0.57 0.57 0.0 0 0 138.40 823.17
  L 141.97 824.20"
        />
        <path stroke="#96bdf4" vector-effect="non-scaling-stroke" d="
  M 141.97 824.20
  C 136.56 834.59 134.92 845.50 139.10 856.54"
        />
        <path stroke="#86b1da" vector-effect="non-scaling-stroke" d="
  M 139.10 856.54
  C 135.66 869.14 133.57 883.53 125.40 893.41
  C 120.96 898.77 115.14 904.49 112.37 910.77
  C 110.23 915.61 108.76 923.82 104.35 926.90
  C 90.30 936.71 91.04 951.69 88.19 966.74"
        />
        <path stroke="#8e8eae" vector-effect="non-scaling-stroke" d="
  M 88.19 966.74
  L 76.33 981.75
  A 0.57 0.57 0.0 0 0 76.60 982.64
  L 115.86 995.80
  Q 116.50 996.01 116.27 996.64
  L 115.06 999.93
  A 0.62 0.61 9.7 0 0 115.64 1000.75
  L 162.28 1000.75
  Q 162.96 1000.75 162.61 1000.16
  C 160.10 995.87 154.38 993.41 149.62 990.87
  C 145.30 988.56 141.93 985.75 138.36 982.67"
        />
        <path stroke="#96bdf4" vector-effect="non-scaling-stroke" d="
  M 138.36 982.67
  Q 141.35 971.19 142.73 967.24
  C 147.02 954.99 154.65 937.28 159.04 922.92
  C 169.19 889.78 173.69 855.13 176.57 820.20"
        />
        <path stroke="#fad296" vector-effect="non-scaling-stroke" d="
  M 176.57 820.20
  Q 177.66 792.98 165.76 768.48
  Q 165.54 768.03 165.91 767.71
  L 184.82 751.27
  A 0.83 0.81 65.6 0 0 185.10 750.50
  Q 184.28 745.26 180.60 740.89"
        />
        <path stroke="#fcd9d4" vector-effect="non-scaling-stroke" d="
  M 180.60 740.89
  C 184.99 731.21 187.74 721.02 191.65 711.14
  C 192.10 710.02 193.04 709.08 193.87 708.25
  Q 194.25 707.87 194.79 707.76
  Q 197.34 707.23 198.40 704.85
  A 0.44 0.44 0.0 0 1 199.25 705.03
  L 199.25 707.52
  A 0.69 0.69 0.0 0 0 200.61 707.69
  Q 202.62 699.53 199.03 691.99
  Q 198.86 691.63 198.55 691.39
  L 197.64 690.71
  Q 197.08 690.30 197.54 689.78
  Q 200.57 686.39 201.65 682.04
  A 0.69 0.69 0.0 0 0 200.42 681.47
  Q 194.16 690.20 190.08 700.00
  Q 188.33 704.22 186.31 707.20
  Q 177.75 719.77 169.10 731.59"
        />
        <path stroke="#fdb779" vector-effect="non-scaling-stroke" d="
  M 180.60 740.89
  L 178.25 745.10
  A 1.23 1.22 38.5 0 1 176.27 745.32
  Q 171.18 739.63 169.10 731.59"
        />
        <path stroke="#989b99" vector-effect="non-scaling-stroke" d="
  M 176.57 820.20
  C 169.65 819.25 162.56 822.94 157.73 824.22
  Q 150.10 826.24 141.97 824.20"
        />
        <path stroke="#fdb779" vector-effect="non-scaling-stroke" d="
  M 141.71 806.20
  L 129.74 801.49"
        />
        <path stroke="#fdb779" vector-effect="non-scaling-stroke" d="
  M 142.69 752.58
  Q 140.76 755.01 135.32 754.97"
        />
        <path stroke="#2c57b1" vector-effect="non-scaling-stroke" d="
  M 138.36 982.67
  L 121.29 982.71"
        />
        <path stroke="#96bdf4" vector-effect="non-scaling-stroke" d="
  M 121.29 982.71
  C 117.57 971.86 115.97 962.25 120.83 951.43"
        />
        <path stroke="#247add" vector-effect="non-scaling-stroke" d="
  M 120.83 951.43
  Q 125.49 941.96 126.07 937.01
  C 126.52 933.14 124.78 928.03 126.38 922.98
  C 128.17 917.32 132.63 912.69 134.41 906.79
  C 138.52 893.19 143.20 875.94 142.19 861.83
  Q 141.97 858.73 139.10 856.54"
        />
        <path stroke="#eb7470" vector-effect="non-scaling-stroke" d="
  M 139.96 729.79
  L 137.23 731.59
  Q 136.80 731.88 136.76 732.38
  Q 136.62 734.00 137.28 735.47
  A 2.53 2.53 0.0 0 1 136.81 738.24
  L 132.56 742.72
  Q 132.15 743.15 132.46 743.66
  L 134.40 746.80
  Q 134.69 747.27 134.58 747.80
  Q 134.37 748.81 133.83 749.30"
        />
        <path stroke="#855890" vector-effect="non-scaling-stroke" d="
  M 123.57 749.67
  Q 122.88 747.78 121.24 747.59"
        />
        <path stroke="#86b1da" vector-effect="non-scaling-stroke" d="
  M 120.83 951.43
  L 103.54 972.13"
        />
        <path stroke="#1c4b97" vector-effect="non-scaling-stroke" d="
  M 103.54 972.13
  L 88.19 966.74"
        />
        <path stroke="#8e8eae" vector-effect="non-scaling-stroke" d="
  M 121.29 982.71
  L 118.61 990.27
  Q 118.47 990.68 118.14 990.39
  Q 109.40 982.65 103.54 972.13"
        />
        <path stroke="#855890" vector-effect="non-scaling-stroke" d="
  M 122.45 751.53
  Q 120.68 750.99 119.68 749.48"
        />
        <path stroke="#eb7470" vector-effect="non-scaling-stroke" d="
  M 103.57 766.03
  Q 104.32 765.06 105.70 762.21
  Q 109.13 755.10 116.46 750.50"
        />
        <path stroke="#96bdf4" vector-effect="non-scaling-stroke" d="
  M 349.73 746.64
  L 358.60 746.59"
        />
        <path stroke="#8e8eae" vector-effect="non-scaling-stroke" d="
  M 358.60 746.59
  L 371.36 746.65
  Q 372.00 746.65 372.00 746.02
  L 372.01 689.29
  Q 372.01 688.75 371.48 688.75
  L 369.74 688.75
  Q 369.24 688.75 369.24 689.26
  L 369.26 742.62
  Q 369.26 743.25 368.63 743.25
  L 361.51 743.25
  Q 361.01 743.25 361.01 742.76
  L 360.69 689.31
  Q 360.69 688.75 360.13 688.75
  L 359.16 688.75
  Q 358.49 688.75 358.51 689.42
  L 358.62 692.73"
        />
        <path stroke="#96bdf4" vector-effect="non-scaling-stroke" d="
  M 358.62 692.73
  L 349.75 692.70"
        />
        <path stroke="#e78f8d" vector-effect="non-scaling-stroke" d="
  M 349.75 692.70
  L 349.75 683.28
  A 0.62 0.62 0.0 0 0 349.13 682.66
  L 337.53 682.68
  A 0.54 0.53 90.0 0 0 337.00 683.22
  L 337.00 746.26
  Q 337.00 746.82 337.56 746.81
  L 349.73 746.64"
        />
        <path stroke="#855890" vector-effect="non-scaling-stroke" d="
  M 349.75 692.70
  L 349.73 746.64"
        />
        <path stroke="#2c57b1" vector-effect="non-scaling-stroke" d="
  M 358.60 746.59
  L 358.62 692.73"
        />
        <path stroke="#96bdf4" vector-effect="non-scaling-stroke" d="
  M 256.43 739.73
  L 256.46 736.89"
        />
        <path stroke="#cddcf7" vector-effect="non-scaling-stroke" d="
  M 256.46 736.89
  L 256.47 734.36"
        />
        <path stroke="#96bdf4" vector-effect="non-scaling-stroke" d="
  M 256.47 734.36
  L 256.47 731.47"
        />
        <path stroke="#cddcf7" vector-effect="non-scaling-stroke" d="
  M 256.47 731.47
  L 256.19 709.26
  A 0.72 0.72 0.0 0 1 257.60 709.07
  L 262.68 728.33
  Q 262.83 728.90 263.40 728.74
  L 269.57 727.02
  Q 270.07 726.88 269.94 726.38
  L 263.75 702.91
  Q 263.63 702.45 263.17 702.55
  L 257.75 703.77
  Q 257.30 703.87 256.76 703.75
  Q 256.28 703.63 256.23 703.13
  A 0.74 0.73 -2.5 0 0 255.49 702.47
  L 247.17 702.48
  Q 246.56 702.48 246.56 703.08
  L 246.27 745.56
  A 0.84 0.84 0.0 0 0 247.06 746.40
  L 255.59 746.94
  Q 256.25 746.99 256.26 746.33
  L 256.43 739.73"
        />
        <path stroke="#6ba5f9" vector-effect="non-scaling-stroke" d="
  M 256.47 731.47
  L 247.67 731.51
  A 1.27 1.27 0.0 0 0 247.39 734.02
  Q 251.57 734.97 256.47 734.36"
        />
        <path stroke="#6ba5f9" vector-effect="non-scaling-stroke" d="
  M 256.46 736.89
  L 247.86 737.53
  A 1.13 1.12 -42.0 0 0 247.74 739.76
  Q 251.88 740.49 256.43 739.73"
        />
        <path stroke="#96bdf4" vector-effect="non-scaling-stroke" d="
  M 222.96 732.26
  L 223.00 733.83"
        />
        <path stroke="#cddcf7" vector-effect="non-scaling-stroke" d="
  M 223.00 733.83
  L 223.02 737.30"
        />
        <path stroke="#96bdf4" vector-effect="non-scaling-stroke" d="
  M 223.02 737.30
  L 223.00 739.46"
        />
        <path stroke="#cddcf7" vector-effect="non-scaling-stroke" d="
  M 223.00 739.46
  Q 222.11 741.42 223.29 743.88
  A 0.99 0.97 -42.3 0 1 223.24 744.80
  Q 222.67 745.70 223.18 746.27
  Q 223.63 746.77 224.90 746.73
  Q 228.39 746.64 231.51 746.98
  Q 232.76 747.12 232.75 745.87
  L 232.69 734.22"
        />
        <path stroke="#96bdf4" vector-effect="non-scaling-stroke" d="
  M 232.69 734.22
  L 232.94 731.37"
        />
        <path stroke="#cddcf7" vector-effect="non-scaling-stroke" d="
  M 232.94 731.37
  L 232.61 703.11
  A 0.62 0.62 0.0 0 0 231.99 702.50
  L 223.41 702.50
  Q 222.81 702.50 222.81 703.09
  L 222.51 731.63
  Q 222.50 731.94 222.75 732.11
  L 222.96 732.26"
        />
        <path stroke="#6ba5f9" vector-effect="non-scaling-stroke" d="
  M 232.94 731.37
  Q 228.07 731.61 223.75 731.68
  Q 223.20 731.69 222.96 732.26"
        />
        <path stroke="#6ba5f9" vector-effect="non-scaling-stroke" d="
  M 232.69 734.22
  Q 228.11 734.95 223.00 733.83"
        />
        <path stroke="#6ba5f9" vector-effect="non-scaling-stroke" d="
  M 223.00 739.46
  Q 227.43 740.72 231.83 739.58
  A 1.23 1.23 0.0 0 0 231.50 737.16
  L 223.02 737.30"
        />
        <path stroke="#96bdf4" vector-effect="non-scaling-stroke" d="
  M 244.52 739.60
  L 244.52 737.99"
        />
        <path stroke="#cddcf7" vector-effect="non-scaling-stroke" d="
  M 244.52 737.99
  L 244.48 734.13"
        />
        <path stroke="#96bdf4" vector-effect="non-scaling-stroke" d="
  M 244.48 734.13
  L 244.45 731.27"
        />
        <path stroke="#cddcf7" vector-effect="non-scaling-stroke" d="
  M 244.45 731.27
  L 244.37 703.13
  Q 244.36 702.50 243.73 702.50
  L 235.22 702.50
  Q 234.69 702.50 234.69 703.03
  L 234.68 745.78
  Q 234.68 746.38 235.28 746.40
  L 243.67 746.74
  Q 244.14 746.76 244.17 746.28
  L 244.52 739.60"
        />
        <path stroke="#6ba5f9" vector-effect="non-scaling-stroke" d="
  M 244.45 731.27
  L 235.87 731.48
  A 1.10 1.10 0.0 0 0 235.55 733.63
  Q 239.59 734.97 244.48 734.13"
        />
        <path stroke="#6ba5f9" vector-effect="non-scaling-stroke" d="
  M 244.52 737.99
  Q 240.49 736.59 235.81 737.44
  A 1.17 1.16 -42.3 0 0 235.70 739.71
  Q 239.71 740.83 244.52 739.60"
        />
        <path stroke="#96bdf4" vector-effect="non-scaling-stroke" d="
  M 278.06 731.28
  Q 277.23 733.38 278.27 734.96"
        />
        <path stroke="#cddcf7" vector-effect="non-scaling-stroke" d="
  M 278.27 734.96
  L 278.27 736.57"
        />
        <path stroke="#96bdf4" vector-effect="non-scaling-stroke" d="
  M 278.27 736.57
  Q 277.52 737.36 277.78 739.87"
        />
        <path stroke="#cddcf7" vector-effect="non-scaling-stroke" d="
  M 277.78 739.87
  L 277.77 746.13
  A 0.77 0.76 -0.7 0 0 278.57 746.90
  L 287.25 746.54
  Q 287.82 746.52 287.80 745.95
  L 287.69 739.96"
        />
        <path stroke="#96bdf4" vector-effect="non-scaling-stroke" d="
  M 287.69 739.96
  Q 288.07 737.79 287.30 736.42"
        />
        <path stroke="#cddcf7" vector-effect="non-scaling-stroke" d="
  M 287.30 736.42
  L 287.49 734.89"
        />
        <path stroke="#96bdf4" vector-effect="non-scaling-stroke" d="
  M 287.49 734.89
  Q 288.19 733.07 287.64 731.17"
        />
        <path stroke="#cddcf7" vector-effect="non-scaling-stroke" d="
  M 287.64 731.17
  L 287.67 703.16
  A 0.67 0.66 0.0 0 0 287.00 702.50
  L 279.01 702.50
  A 0.98 0.98 0.0 0 0 278.03 703.46
  Q 277.97 707.25 277.49 711.25
  Q 277.39 712.04 277.75 712.47
  Q 278.05 712.84 278.05 713.31
  L 278.06 731.28"
        />
        <path stroke="#6ba5f9" vector-effect="non-scaling-stroke" d="
  M 287.64 731.17
  L 278.06 731.28"
        />
        <path stroke="#6ba5f9" vector-effect="non-scaling-stroke" d="
  M 287.49 734.89
  Q 282.65 734.16 278.27 734.96"
        />
        <path stroke="#6ba5f9" vector-effect="non-scaling-stroke" d="
  M 287.30 736.42
  L 278.27 736.57"
        />
        <path stroke="#6ba5f9" vector-effect="non-scaling-stroke" d="
  M 287.69 739.96
  L 277.78 739.87"
        />
        <path stroke="#96bdf4" vector-effect="non-scaling-stroke" d="
  M 289.77 731.49
  Q 289.52 734.79 290.25 735.31"
        />
        <path stroke="#cddcf7" vector-effect="non-scaling-stroke" d="
  M 290.25 735.31
  L 289.96 736.38"
        />
        <path stroke="#96bdf4" vector-effect="non-scaling-stroke" d="
  M 289.96 736.38
  L 289.80 740.50"
        />
        <path stroke="#cddcf7" vector-effect="non-scaling-stroke" d="
  M 289.80 740.50
  L 289.80 745.95
  Q 289.80 746.54 290.40 746.56
  L 298.81 746.78
  Q 299.42 746.80 299.42 746.19
  L 299.45 740.06"
        />
        <path stroke="#96bdf4" vector-effect="non-scaling-stroke" d="
  M 299.45 740.06
  L 299.19 736.73"
        />
        <path stroke="#cddcf7" vector-effect="non-scaling-stroke" d="
  M 299.19 736.73
  L 299.21 734.95"
        />
        <path stroke="#96bdf4" vector-effect="non-scaling-stroke" d="
  M 299.21 734.95
  L 299.48 731.37"
        />
        <path stroke="#cddcf7" vector-effect="non-scaling-stroke" d="
  M 299.48 731.37
  L 299.44 703.17
  A 0.67 0.67 0.0 0 0 298.77 702.50
  L 290.27 702.50
  Q 289.76 702.50 289.76 703.00
  L 289.77 731.49"
        />
        <path stroke="#6ba5f9" vector-effect="non-scaling-stroke" d="
  M 299.48 731.37
  L 289.77 731.49"
        />
        <path stroke="#6ba5f9" vector-effect="non-scaling-stroke" d="
  M 299.21 734.95
  Q 294.24 733.95 290.25 735.31"
        />
        <path stroke="#6ba5f9" vector-effect="non-scaling-stroke" d="
  M 299.19 736.73
  L 289.96 736.38"
        />
        <path stroke="#6ba5f9" vector-effect="non-scaling-stroke" d="
  M 299.45 740.06
  L 289.80 740.50"
        />
        <path stroke="#96bdf4" vector-effect="non-scaling-stroke" d="
  M 301.51 731.57
  L 301.84 735.39"
        />
        <path stroke="#cddcf7" vector-effect="non-scaling-stroke" d="
  M 301.84 735.39
  Q 301.68 735.48 301.78 736.37"
        />
        <path stroke="#96bdf4" vector-effect="non-scaling-stroke" d="
  M 301.78 736.37
  L 301.78 740.08"
        />
        <path stroke="#cddcf7" vector-effect="non-scaling-stroke" d="
  M 301.78 740.08
  L 301.61 746.34
  Q 301.60 746.82 302.07 746.82
  L 310.65 746.82
  A 0.78 0.78 0.0 0 0 311.43 746.05
  L 311.49 739.77"
        />
        <path stroke="#96bdf4" vector-effect="non-scaling-stroke" d="
  M 311.49 739.77
  L 311.21 736.54"
        />
        <path stroke="#cddcf7" vector-effect="non-scaling-stroke" d="
  M 311.21 736.54
  Q 311.36 735.79 310.94 735.01"
        />
        <path stroke="#96bdf4" vector-effect="non-scaling-stroke" d="
  M 310.94 735.01
  Q 311.73 733.86 311.45 731.74"
        />
        <path stroke="#cddcf7" vector-effect="non-scaling-stroke" d="
  M 311.45 731.74
  L 311.39 703.12
  A 0.66 0.65 89.1 0 0 310.73 702.47
  L 302.44 702.57
  Q 301.81 702.58 301.77 703.20
  Q 300.82 717.63 301.51 731.57"
        />
        <path stroke="#6ba5f9" vector-effect="non-scaling-stroke" d="
  M 311.45 731.74
  L 301.51 731.57"
        />
        <path stroke="#6ba5f9" vector-effect="non-scaling-stroke" d="
  M 310.94 735.01
  Q 306.43 733.58 301.84 735.39"
        />
        <path stroke="#6ba5f9" vector-effect="non-scaling-stroke" d="
  M 311.21 736.54
  Q 306.38 737.16 301.78 736.37"
        />
        <path stroke="#6ba5f9" vector-effect="non-scaling-stroke" d="
  M 311.49 739.77
  L 301.78 740.08"
        />
        <path stroke="#cddcf7" vector-effect="non-scaling-stroke" d="
  M 270.7570 729.0456
  A 0.51 0.51 0.0 0 0 270.1330 728.6839
  L 263.8323 730.3604
  A 0.51 0.51 0.0 0 0 263.4706 730.9843
  L 267.5230 746.2144
  A 0.51 0.51 0.0 0 0 268.1470 746.5761
  L 274.4477 744.8996
  A 0.51 0.51 0.0 0 0 274.8094 744.2757
  L 270.7570 729.0456"
        />
        <path stroke="#96bdf4" vector-effect="non-scaling-stroke" d="
  M 310.36 790.80
  L 302.03 813.76
  A 0.43 0.42 -70.5 0 0 302.29 814.31
  L 309.48 816.80
  Q 310.01 816.98 310.19 816.45
  Q 310.69 815.01 311.38 814.27"
        />
        <path stroke="#86b1da" vector-effect="non-scaling-stroke" d="
  M 311.38 814.27
  L 318.34 816.92
  Q 318.92 817.14 319.13 816.56
  L 322.57 807.32
  Q 322.78 806.75 322.28 807.08
  Q 321.61 807.52 320.99 807.28
  Q 318.06 806.14 314.57 805.12"
        />
        <path stroke="#96bdf4" vector-effect="non-scaling-stroke" d="
  M 314.57 805.12
  Q 314.49 802.30 316.14 800.80"
        />
        <path stroke="#86b1da" vector-effect="non-scaling-stroke" d="
  M 316.14 800.80
  L 323.39 803.62
  Q 323.87 803.81 324.04 803.33
  L 335.99 770.98"
        />
        <path stroke="#cddcf7" vector-effect="non-scaling-stroke" d="
  M 335.99 770.98
  Q 336.35 771.10 336.35 771.32
  Q 335.76 793.81 336.27 816.36
  Q 336.28 816.85 336.78 816.87
  Q 350.22 817.49 363.61 816.22
  C 367.60 815.85 370.97 816.90 375.01 817.18
  Q 375.62 817.22 375.64 816.61
  Q 376.35 793.80 375.67 771.00
  Q 375.65 770.52 375.17 770.52
  L 336.23 770.50"
        />
        <path stroke="#86b1da" vector-effect="non-scaling-stroke" d="
  M 336.23 770.50
  L 328.32 767.88
  Q 327.79 767.70 327.77 768.26
  Q 327.76 768.86 327.45 769.05"
        />
        <path stroke="#cddcf7" vector-effect="non-scaling-stroke" d="
  M 327.45 769.05
  Q 326.82 770.27 325.33 769.70
  Q 321.63 768.27 319.22 767.69
  Q 318.67 767.55 318.48 768.09
  L 310.36 790.80"
        />
        <path stroke="#5b99e0" vector-effect="non-scaling-stroke" d="
  M 327.45 769.05
  Q 327.84 769.70 327.62 770.00
  Q 327.55 770.10 327.53 770.16
  Q 322.91 782.09 318.57 793.98"
        />
        <path stroke="#6ba5f9" vector-effect="non-scaling-stroke" d="
  M 318.57 793.98
  L 310.36 790.80"
        />
        <path stroke="#247add" vector-effect="non-scaling-stroke" d="
  M 314.57 805.12
  L 311.38 814.27"
        />
        <path stroke="#5b99e0" vector-effect="non-scaling-stroke" d="
  M 336.23 770.50
  Q 336.16 770.76 335.99 770.98"
        />
        <path stroke="#247add" vector-effect="non-scaling-stroke" d="
  M 316.14 800.80
  L 318.57 793.98"
        />
        <path stroke="#fcd9d4" vector-effect="non-scaling-stroke" d="
  M 230.95 772.74
  L 230.22 773.57"
        />
        <path stroke="#8e8eae" vector-effect="non-scaling-stroke" d="
  M 230.22 773.57
  L 222.15 773.28
  A 0.68 0.67 0.8 0 0 221.45 773.95
  L 221.40 783.92"
        />
        <path stroke="#86b1da" vector-effect="non-scaling-stroke" d="
  M 221.40 783.92
  L 221.28 805.84"
        />
        <path stroke="#8e8eae" vector-effect="non-scaling-stroke" d="
  M 221.28 805.84
  L 221.51 816.50
  Q 221.52 817.00 222.02 817.00
  L 230.34 817.00
  Q 231.00 817.00 230.90 816.35
  L 230.74 815.33"
        />
        <path stroke="#86b1da" vector-effect="non-scaling-stroke" d="
  M 230.74 815.33
  L 231.26 787.27"
        />
        <path stroke="#fcd9d4" vector-effect="non-scaling-stroke" d="
  M 231.26 787.27
  L 231.60 784.76"
        />
        <path stroke="#e78f8d" vector-effect="non-scaling-stroke" d="
  M 231.60 784.76
  L 233.68 816.46
  Q 233.72 817.02 234.28 816.99
  L 242.48 816.43
  Q 243.02 816.39 243.00 815.84
  Q 242.43 804.16 242.02 792.46
  C 241.86 787.95 240.82 782.60 241.01 777.98
  Q 241.09 775.86 241.37 777.96
  L 246.41 816.21
  A 0.70 0.70 0.0 0 0 247.20 816.81
  L 255.26 815.72
  A 0.67 0.67 0.0 0 0 255.84 815.02
  Q 255.75 812.51 255.25 808.49
  Q 252.66 787.82 250.12 772.81
  Q 250.03 772.26 249.48 772.35
  L 241.19 773.59
  Q 240.75 773.66 240.75 773.22
  L 240.75 772.21
  Q 240.75 771.54 240.09 771.52
  Q 235.12 771.39 231.69 771.89
  Q 230.98 771.99 230.95 772.74"
        />
        <path stroke="#eb7470" vector-effect="non-scaling-stroke" d="
  M 231.60 784.76
  L 231.45 774.13
  Q 231.44 773.67 231.16 773.30
  Q 230.98 773.06 230.95 772.74"
        />
        <path stroke="#8a96bd" vector-effect="non-scaling-stroke" d="
  M 231.26 787.27
  Q 231.23 785.86 230.72 784.74"
        />
        <path stroke="#917391" vector-effect="non-scaling-stroke" d="
  M 230.72 784.74
  Q 230.53 780.23 230.81 776.25
  Q 230.92 774.65 230.22 773.57"
        />
        <path stroke="#1c4b97" vector-effect="non-scaling-stroke" d="
  M 230.72 784.74
  Q 224.94 786.98 221.40 783.92"
        />
        <path stroke="#1c4b97" vector-effect="non-scaling-stroke" d="
  M 230.74 815.33
  L 230.22 806.20
  Q 230.19 805.63 229.62 805.64
  L 221.28 805.84"
        />
        <path stroke="#e78f8d" vector-effect="non-scaling-stroke" d="
  M 267.4867 774.2384
  A 0.71 0.71 0.0 0 0 266.7779 773.5272
  L 258.6179 773.5129
  A 0.71 0.71 0.0 0 0 257.9067 774.2217
  L 257.8333 816.2616
  A 0.71 0.71 0.0 0 0 258.5421 816.9728
  L 266.7021 816.9871
  A 0.71 0.71 0.0 0 0 267.4133 816.2783
  L 267.4867 774.2384"
        />
        <path stroke="#96bdf4" vector-effect="non-scaling-stroke" d="
  M 269.53 798.65
  L 269.49 803.94"
        />
        <path stroke="#cddcf7" vector-effect="non-scaling-stroke" d="
  M 269.49 803.94
  L 269.23 808.57"
        />
        <path stroke="#96bdf4" vector-effect="non-scaling-stroke" d="
  M 269.23 808.57
  L 269.22 809.99"
        />
        <path stroke="#cddcf7" vector-effect="non-scaling-stroke" d="
  M 269.22 809.99
  L 269.55 816.55
  Q 269.57 817.11 270.13 817.11
  L 277.17 817.11
  Q 277.90 817.11 277.81 816.38
  Q 277.42 813.12 278.30 809.98
  A 1.88 1.86 -46.4 0 0 278.28 808.91
  Q 277.42 806.24 278.04 803.71"
        />
        <path stroke="#96bdf4" vector-effect="non-scaling-stroke" d="
  M 278.04 803.71
  L 278.06 798.66"
        />
        <path stroke="#cddcf7" vector-effect="non-scaling-stroke" d="
  M 278.06 798.66
  L 277.93 779.28
  A 1.11 1.11 0.0 0 0 276.76 778.18
  L 270.24 778.55
  A 0.77 0.76 -1.6 0 0 269.51 779.31
  L 269.53 798.65"
        />
        <path stroke="#6ba5f9" vector-effect="non-scaling-stroke" d="
  M 278.06 798.66
  L 269.53 798.65"
        />
        <path stroke="#6ba5f9" vector-effect="non-scaling-stroke" d="
  M 278.04 803.71
  L 269.49 803.94"
        />
        <path stroke="#6ba5f9" vector-effect="non-scaling-stroke" d="
  M 269.22 809.99
  C 270.70 811.50 275.43 810.70 277.45 810.77
  A 0.64 0.63 -17.1 0 0 277.99 809.76
  C 276.52 807.75 271.36 808.42 269.23 808.57"
        />
        <path stroke="#96bdf4" vector-effect="non-scaling-stroke" d="
  M 280.14 798.47
  L 280.29 803.47"
        />
        <path stroke="#cddcf7" vector-effect="non-scaling-stroke" d="
  M 280.29 803.47
  L 280.15 808.80"
        />
        <path stroke="#96bdf4" vector-effect="non-scaling-stroke" d="
  M 280.15 808.80
  Q 280.50 809.62 280.01 809.73"
        />
        <path stroke="#cddcf7" vector-effect="non-scaling-stroke" d="
  M 280.01 809.73
  L 280.26 816.46
  Q 280.28 817.05 280.87 817.07
  L 287.72 817.29
  A 0.73 0.72 -89.2 0 0 288.46 816.56
  L 288.48 810.72"
        />
        <path stroke="#96bdf4" vector-effect="non-scaling-stroke" d="
  M 288.48 810.72
  Q 288.87 810.25 288.45 808.65"
        />
        <path stroke="#cddcf7" vector-effect="non-scaling-stroke" d="
  M 288.45 808.65
  L 288.48 803.38"
        />
        <path stroke="#96bdf4" vector-effect="non-scaling-stroke" d="
  M 288.48 803.38
  L 288.49 798.31"
        />
        <path stroke="#cddcf7" vector-effect="non-scaling-stroke" d="
  M 288.49 798.31
  L 288.49 778.73
  A 0.55 0.54 89.0 0 0 287.93 778.18
  L 280.56 778.46
  Q 280.05 778.48 280.05 778.99
  L 280.14 798.47"
        />
        <path stroke="#6ba5f9" vector-effect="non-scaling-stroke" d="
  M 288.49 798.31
  L 280.14 798.47"
        />
        <path stroke="#6ba5f9" vector-effect="non-scaling-stroke" d="
  M 288.48 803.38
  L 280.29 803.47"
        />
        <path stroke="#6ba5f9" vector-effect="non-scaling-stroke" d="
  M 288.45 808.65
  L 280.15 808.80"
        />
        <path stroke="#6ba5f9" vector-effect="non-scaling-stroke" d="
  M 288.48 810.72
  Q 284.67 811.04 280.94 810.56
  Q 280.47 810.50 280.01 809.73"
        />
        <path stroke="#96bdf4" vector-effect="non-scaling-stroke" d="
  M 290.22 798.52
  L 290.23 803.64"
        />
        <path stroke="#cddcf7" vector-effect="non-scaling-stroke" d="
  M 290.23 803.64
  L 290.00 808.81"
        />
        <path stroke="#96bdf4" vector-effect="non-scaling-stroke" d="
  M 290.00 808.81
  L 290.12 810.92"
        />
        <path stroke="#cddcf7" vector-effect="non-scaling-stroke" d="
  M 290.12 810.92
  L 290.28 816.50
  Q 290.29 817.00 290.79 817.00
  L 297.97 817.00
  A 0.59 0.58 86.5 0 0 298.55 816.34
  Q 298.19 813.28 299.15 810.38
  A 1.69 1.64 -44.1 0 0 299.18 809.42
  C 298.38 806.52 299.07 803.13 298.98 800.91
  Q 298.55 790.06 298.81 779.13
  A 0.61 0.61 0.0 0 0 298.22 778.51
  L 291.00 778.27
  Q 290.37 778.25 290.36 778.88
  L 290.22 798.52"
        />
        <path stroke="#6ba5f9" vector-effect="non-scaling-stroke" d="
  M 290.12 810.92
  L 297.93 810.79
  Q 298.50 810.78 298.50 810.21
  L 298.50 809.23
  A 0.62 0.62 0.0 0 0 297.86 808.61
  L 290.00 808.81"
        />
        <path stroke="#6ba5f9" vector-effect="non-scaling-stroke" d="
  M 290.23 803.64
  L 297.85 803.66
  Q 298.50 803.66 298.50 803.02
  L 298.50 799.22
  A 0.68 0.67 -90.0 0 0 297.83 798.54
  L 290.22 798.52"
        />
        <path stroke="#cddcf7" vector-effect="non-scaling-stroke" d="
  M 400.8217 788.7808
  A 2.47 0.61 125.9 0 0 402.7641 787.1377
  A 2.47 0.61 125.9 0 0 403.7183 784.7792
  A 2.47 0.61 125.9 0 0 401.7759 786.4223
  A 2.47 0.61 125.9 0 0 400.8217 788.7808"
        />
        <path stroke="#cddcf7" vector-effect="non-scaling-stroke" d="
  M 394.66 794.77
  Q 392.59 799.39 389.13 802.89"
        />
        <path stroke="#8e8eae" vector-effect="non-scaling-stroke" d="
  M 389.13 802.89
  Q 386.51 801.12 384.13 800.78
  A 1.51 1.51 0.0 0 0 382.58 802.99
  C 384.30 806.19 391.14 812.74 394.98 810.26
  A 0.68 0.68 0.0 0 0 395.23 809.40
  Q 393.67 806.01 390.27 803.39"
        />
        <path stroke="#cddcf7" vector-effect="non-scaling-stroke" d="
  M 390.27 803.39
  L 396.05 795.83"
        />
        <path stroke="#8e8eae" vector-effect="non-scaling-stroke" d="
  M 396.05 795.83
  C 397.94 797.19 403.05 799.99 405.26 798.90
  C 408.81 797.14 402.11 790.87 400.41 789.88"
        />
        <path stroke="#cddcf7" vector-effect="non-scaling-stroke" d="
  M 400.41 789.88
  Q 400.19 789.98 399.90 789.65"
        />
        <path stroke="#8e8eae" vector-effect="non-scaling-stroke" d="
  M 399.90 789.65
  C 398.09 787.93 391.23 783.66 389.36 786.84
  A 1.63 1.63 0.0 0 0 389.28 788.34
  Q 391.01 792.09 394.66 794.77"
        />
        <path stroke="#6276b4" vector-effect="non-scaling-stroke" d="
  M 399.90 789.65
  Q 398.31 790.26 397.71 791.27
  Q 397.38 791.84 398.04 791.84
  Q 399.52 791.84 400.41 789.88"
        />
        <path stroke="#6276b4" vector-effect="non-scaling-stroke" d="
  M 396.05 795.83
  L 394.66 794.77"
        />
        <path stroke="#6276b4" vector-effect="non-scaling-stroke" d="
  M 390.27 803.39
  Q 389.78 805.64 388.54 805.45
  Q 387.95 805.36 388.21 804.82
  L 389.13 802.89"
        />
        <path stroke="#cddcf7" vector-effect="non-scaling-stroke" d="
  M 386.4814 809.1812
  A 0.27 0.27 0.0 0 0 386.3955 808.8092
  L 386.2598 808.7244
  A 0.27 0.27 0.0 0 0 385.8877 808.8103
  L 380.0586 818.1388
  A 0.27 0.27 0.0 0 0 380.1445 818.5108
  L 380.2802 818.5956
  A 0.27 0.27 0.0 0 0 380.6523 818.5097
  L 386.4814 809.1812"
        />
        <path stroke="#8e8eae" vector-effect="non-scaling-stroke" d="
  M 377.99 821.76
  L 378.83 820.08
  Q 379.04 819.65 378.59 819.49
  Q 374.94 818.16 371.27 819.22
  A 0.80 0.80 0.0 0 0 370.74 820.29
  C 372.31 824.19 380.18 826.11 384.27 825.62
  A 1.34 1.33 -23.7 0 0 385.13 823.43
  Q 383.29 821.27 380.65 820.27
  A 0.54 0.53 -60.7 0 0 380.05 820.44
  L 378.71 822.21
  A 0.43 0.43 0.0 0 1 377.99 821.76"
        />
        <path stroke="#cddcf7" vector-effect="non-scaling-stroke" d="
  M 356.51 870.94
  L 356.57 873.73"
        />
        <path stroke="#e78f8d" vector-effect="non-scaling-stroke" d="
  M 356.57 873.73
  L 356.31 879.09
  Q 356.28 879.73 356.92 879.73
  L 366.73 879.73"
        />
        <path stroke="#96bdf4" vector-effect="non-scaling-stroke" d="
  M 366.73 879.73
  L 373.62 879.88
  Q 374.23 879.89 374.23 879.28
  L 374.32 835.88
  A 1.20 1.20 0.0 0 0 373.14 834.68
  L 366.63 834.58"
        />
        <path stroke="#e78f8d" vector-effect="non-scaling-stroke" d="
  M 366.63 834.58
  L 366.69 827.16
  Q 366.70 826.50 366.03 826.50
  L 357.01 826.50
  Q 356.36 826.50 356.36 827.15
  L 356.51 870.94"
        />
        <path stroke="#855890" vector-effect="non-scaling-stroke" d="
  M 366.63 834.58
  L 366.92 840.03"
        />
        <path stroke="#7d294a" vector-effect="non-scaling-stroke" d="
  M 366.92 840.03
  L 363.08 839.72
  A 1.04 1.04 0.0 0 0 362.15 841.35
  Q 363.48 843.26 366.02 844.51"
        />
        <path stroke="#bc7693" vector-effect="non-scaling-stroke" d="
  M 366.02 844.51
  L 366.14 844.78
  Q 366.24 845.02 366.14 845.26
  Q 360.66 857.57 356.51 870.94"
        />
        <path stroke="#6276b4" vector-effect="non-scaling-stroke" d="
  M 367.07 844.94
  Q 366.55 844.53 366.02 844.51"
        />
        <path stroke="#855890" vector-effect="non-scaling-stroke" d="
  M 366.73 879.73
  L 366.88 847.01"
        />
        <path stroke="#6ba5f9" vector-effect="non-scaling-stroke" d="
  M 366.88 847.01
  Q 367.34 845.86 367.07 844.94"
        />
        <path stroke="#2c57b1" vector-effect="non-scaling-stroke" d="
  M 367.07 844.94
  Q 370.12 846.39 372.84 846.01
  A 1.04 1.04 0.0 0 0 373.40 844.21
  L 370.23 841.28
  A 0.62 0.61 41.5 0 0 369.35 841.33
  L 367.99 842.95
  A 0.50 0.50 0.0 0 1 367.14 842.44
  L 367.69 841.04
  A 0.74 0.74 0.0 0 0 367.18 840.06
  Q 367.06 840.03 366.92 840.03"
        />
        <path stroke="#bc7693" vector-effect="non-scaling-stroke" d="
  M 366.88 847.01
  Q 366.39 847.73 365.99 848.64
  Q 360.56 860.95 356.57 873.73"
        />
        <path stroke="#e78f8d" vector-effect="non-scaling-stroke" d="
  M 275.79 850.81
  L 222.54 850.60
  A 0.70 0.70 0.0 0 0 221.83 851.33
  L 222.18 861.58"
        />
        <path stroke="#96bdf4" vector-effect="non-scaling-stroke" d="
  M 222.18 861.58
  Q 220.79 861.16 220.11 862.14
  Q 219.71 862.73 219.77 863.94
  Q 219.90 866.18 220.05 868.51
  Q 220.08 868.98 220.55 869.01
  L 224.44 869.28"
        />
        <path stroke="#e78f8d" vector-effect="non-scaling-stroke" d="
  M 224.44 869.28
  L 224.32 879.31
  A 0.45 0.45 0.0 0 0 224.77 879.77
  L 269.94 879.85"
        />
        <path stroke="#f8f4f1" vector-effect="non-scaling-stroke" d="
  M 269.94 879.85
  L 280.89 879.90"
        />
        <path stroke="#cddcf7" vector-effect="non-scaling-stroke" d="
  M 280.89 879.90
  L 290.30 878.33
  Q 290.88 878.23 290.80 877.65
  L 289.71 869.83"
        />
        <path stroke="#96bdf4" vector-effect="non-scaling-stroke" d="
  M 289.71 869.83
  Q 289.65 867.88 288.73 866.52"
        />
        <path stroke="#cddcf7" vector-effect="non-scaling-stroke" d="
  M 288.73 866.52
  L 288.54 864.43"
        />
        <path stroke="#96bdf4" vector-effect="non-scaling-stroke" d="
  M 288.54 864.43
  Q 288.89 862.66 288.11 860.82"
        />
        <path stroke="#cddcf7" vector-effect="non-scaling-stroke" d="
  M 288.11 860.82
  L 283.59 831.66
  A 0.52 0.52 0.0 0 0 283.00 831.23
  L 273.77 832.59
  Q 273.25 832.67 273.33 833.18
  L 275.79 850.81"
        />
        <path stroke="#6ba5f9" vector-effect="non-scaling-stroke" d="
  M 288.11 860.82
  L 277.95 862.58"
        />
        <path stroke="#cddcf7" vector-effect="non-scaling-stroke" d="
  M 277.95 862.58
  Q 277.84 856.54 275.89 852.48"
        />
        <path stroke="#bc7693" vector-effect="non-scaling-stroke" d="
  M 275.89 852.48
  L 275.79 850.81"
        />
        <path stroke="#96bdf4" vector-effect="non-scaling-stroke" d="
  M 277.95 862.58
  Q 277.94 864.42 278.75 865.88"
        />
        <path stroke="#cddcf7" vector-effect="non-scaling-stroke" d="
  M 278.75 865.88
  L 279.08 868.15"
        />
        <path stroke="#96bdf4" vector-effect="non-scaling-stroke" d="
  M 279.08 868.15
  Q 278.65 870.13 279.74 871.67"
        />
        <path stroke="#cddcf7" vector-effect="non-scaling-stroke" d="
  M 279.74 871.67
  L 280.89 879.90"
        />
        <path stroke="#e78f8d" vector-effect="non-scaling-stroke" d="
  M 269.94 879.85
  Q 270.48 878.73 270.22 878.05
  Q 270.09 877.72 269.74 877.72
  L 227.95 877.76
  A 0.56 0.55 0.5 0 1 227.39 877.20
  L 227.43 871.66
  A 0.41 0.41 0.0 0 1 227.84 871.25
  L 269.69 871.25
  Q 270.40 871.25 270.28 870.55
  L 270.11 869.57
  Q 270.00 868.92 269.35 868.98
  L 266.61 869.26"
        />
        <path stroke="#96bdf4" vector-effect="non-scaling-stroke" d="
  M 266.61 869.26
  Q 268.24 866.32 267.17 861.58"
        />
        <path stroke="#6ba5f9" vector-effect="non-scaling-stroke" d="
  M 288.54 864.43
  L 278.75 865.88"
        />
        <path stroke="#e78f8d" vector-effect="non-scaling-stroke" d="
  M 275.89 852.48
  L 225.97 852.50
  Q 225.43 852.50 225.44 853.03
  L 225.53 858.89
  Q 225.54 859.50 226.14 859.50
  L 275.20 859.50
  A 0.97 0.96 -87.5 0 1 276.16 860.55
  Q 276.05 861.76 274.50 861.66
  Q 270.90 861.42 267.17 861.58"
        />
        <path stroke="#855890" vector-effect="non-scaling-stroke" d="
  M 267.17 861.58
  L 222.18 861.58"
        />
        <path stroke="#855890" vector-effect="non-scaling-stroke" d="
  M 266.61 869.26
  L 224.44 869.28"
        />
        <path stroke="#6ba5f9" vector-effect="non-scaling-stroke" d="
  M 289.71 869.83
  L 279.74 871.67"
        />
        <path stroke="#6ba5f9" vector-effect="non-scaling-stroke" d="
  M 288.73 866.52
  L 279.08 868.15"
        />
        <path stroke="#96bdf4" vector-effect="non-scaling-stroke" d="
  M 290.60 862.81
  L 291.25 865.67"
        />
        <path stroke="#cddcf7" vector-effect="non-scaling-stroke" d="
  M 291.25 865.67
  Q 291.80 866.85 291.60 867.85"
        />
        <path stroke="#96bdf4" vector-effect="non-scaling-stroke" d="
  M 291.60 867.85
  L 292.21 871.92"
        />
        <path stroke="#cddcf7" vector-effect="non-scaling-stroke" d="
  M 292.21 871.92
  L 293.22 878.94
  Q 293.30 879.54 293.90 879.46
  L 303.04 878.31
  Q 303.61 878.24 303.51 877.67
  L 302.24 870.01"
        />
        <path stroke="#96bdf4" vector-effect="non-scaling-stroke" d="
  M 302.24 870.01
  Q 302.55 867.76 301.26 866.62"
        />
        <path stroke="#cddcf7" vector-effect="non-scaling-stroke" d="
  M 301.26 866.62
  L 301.25 864.24"
        />
        <path stroke="#96bdf4" vector-effect="non-scaling-stroke" d="
  M 301.25 864.24
  Q 301.74 862.72 301.00 861.17"
        />
        <path stroke="#cddcf7" vector-effect="non-scaling-stroke" d="
  M 301.00 861.17
  L 296.25 831.76
  Q 296.15 831.15 295.54 831.24
  L 286.59 832.60
  Q 286.05 832.69 286.14 833.22
  L 290.60 862.81"
        />
        <path stroke="#6ba5f9" vector-effect="non-scaling-stroke" d="
  M 301.00 861.17
  L 290.60 862.81"
        />
        <path stroke="#6ba5f9" vector-effect="non-scaling-stroke" d="
  M 301.25 864.24
  L 291.25 865.67"
        />
        <path stroke="#6ba5f9" vector-effect="non-scaling-stroke" d="
  M 301.26 866.62
  Q 296.57 868.04 291.60 867.85"
        />
        <path stroke="#6ba5f9" vector-effect="non-scaling-stroke" d="
  M 302.24 870.01
  L 292.21 871.92"
        />
        <path stroke="#96bdf4" vector-effect="non-scaling-stroke" d="
  M 303.31 862.55
  L 304.00 865.75"
        />
        <path stroke="#cddcf7" vector-effect="non-scaling-stroke" d="
  M 304.00 865.75
  Q 303.87 867.65 304.31 868.49"
        />
        <path stroke="#96bdf4" vector-effect="non-scaling-stroke" d="
  M 304.31 868.49
  Q 305.01 870.29 304.86 871.65"
        />
        <path stroke="#cddcf7" vector-effect="non-scaling-stroke" d="
  M 304.86 871.65
  L 305.97 879.12
  Q 306.04 879.59 306.51 879.53
  L 315.53 878.38
  Q 316.03 878.32 315.95 877.82
  L 314.77 870.04"
        />
        <path stroke="#96bdf4" vector-effect="non-scaling-stroke" d="
  M 314.77 870.04
  Q 314.92 868.24 314.25 866.60"
        />
        <path stroke="#cddcf7" vector-effect="non-scaling-stroke" d="
  M 314.25 866.60
  L 313.75 864.48"
        />
        <path stroke="#96bdf4" vector-effect="non-scaling-stroke" d="
  M 313.75 864.48
  Q 314.30 863.13 313.50 861.01"
        />
        <path stroke="#cddcf7" vector-effect="non-scaling-stroke" d="
  M 313.50 861.01
  L 308.94 831.74
  Q 308.85 831.13 308.24 831.22
  L 299.48 832.60
  A 0.83 0.83 0.0 0 0 298.79 833.55
  L 303.31 862.55"
        />
        <path stroke="#6ba5f9" vector-effect="non-scaling-stroke" d="
  M 313.50 861.01
  L 303.31 862.55"
        />
        <path stroke="#6ba5f9" vector-effect="non-scaling-stroke" d="
  M 313.75 864.48
  L 304.00 865.75"
        />
        <path stroke="#6ba5f9" vector-effect="non-scaling-stroke" d="
  M 314.25 866.60
  L 304.31 868.49"
        />
        <path stroke="#6ba5f9" vector-effect="non-scaling-stroke" d="
  M 314.77 870.04
  L 304.86 871.65"
        />
    </g>
    <path fill="#f8f4f1" d="
  M 0.00 0.00
  L 943.63 0.00
  Q 970.30 26.14 980.69 37.31
  C 1038.77 99.77 1089.44 168.36 1135.95 240.30
  Q 1195.08 331.76 1243.57 427.69
  C 1281.03 501.79 1313.89 578.72 1337.90 658.28
  C 1353.87 711.20 1366.18 767.62 1364.85 823.18
  C 1364.34 844.55 1361.07 866.90 1353.47 886.70
  C 1306.01 1010.25 1190.59 1087.43 1074.84 1138.14
  C 1017.31 1163.34 959.12 1183.23 903.55 1204.29
  Q 885.25 1211.22 867.18 1221.00
  L 0.00 1221.00
  L 0.00 0.00
  Z
  M 225.80 676.26
  L 237.88 676.26
  A 0.94 0.94 0.0 0 0 238.82 675.32
  L 238.82 639.47
  A 25.97 0.39 -90.0 0 0 238.43 613.50
  L 225.25 613.50
  A 25.97 0.39 90.0 0 0 224.86 639.47
  L 224.86 675.32
  A 0.94 0.94 0.0 0 0 225.80 676.26
  Z
  M 240.93 674.33
  C 240.94 674.83 240.63 675.20 240.78 675.84
  Q 240.87 676.25 241.29 676.25
  L 254.04 676.25
  Q 254.57 676.25 254.57 675.71
  L 254.31 614.00
  Q 254.31 613.50 253.81 613.50
  L 241.52 613.50
  A 0.62 0.62 0.0 0 0 240.90 614.10
  Q 240.08 644.11 240.93 674.33
  Z
  M 313.24 647.06
  L 259.64 647.07
  Q 258.95 647.07 258.96 647.75
  L 259.01 657.49
  A 0.71 0.71 0.0 0 0 259.67 658.20
  L 263.77 658.50
  L 257.38 658.20
  Q 256.84 658.18 256.82 658.71
  L 256.57 664.82
  A 0.66 0.65 3.1 0 0 257.19 665.50
  L 261.71 665.74
  L 261.67 675.73
  Q 261.66 676.24 262.18 676.24
  L 307.40 676.30
  L 324.00 676.28
  L 331.70 673.62
  Q 332.68 674.08 333.05 675.89
  Q 333.16 676.44 333.68 676.24
  L 340.77 673.59
  A 0.45 0.44 70.3 0 0 341.03 673.03
  L 326.74 634.02
  Q 327.19 633.89 327.28 634.27
  Q 327.34 634.52 327.38 634.61
  Q 337.75 655.34 348.53 675.89
  A 0.64 0.63 -27.6 0 0 349.38 676.15
  L 355.83 672.79
  A 0.74 0.74 0.0 0 0 356.15 671.80
  L 333.97 628.99
  Q 333.73 628.52 333.26 628.77
  L 326.23 632.56
  L 324.40 627.69
  Q 324.19 627.13 323.63 627.35
  L 316.12 630.30
  Q 315.96 628.45 315.02 627.47
  A 0.78 0.77 -32.1 0 0 314.19 627.29
  L 307.55 629.78
  A 0.55 0.55 0.0 0 0 307.22 630.48
  L 313.24 647.06
  Z
  M 169.10 731.59
  L 142.69 752.58
  L 142.49 750.35
  Q 142.44 749.84 142.79 749.46
  C 146.88 745.02 146.75 740.40 146.20 734.98
  Q 146.04 733.46 144.28 733.58
  Q 143.63 733.62 143.90 733.03
  Q 144.17 732.42 143.85 731.97
  Q 143.57 731.56 143.21 731.91
  L 142.78 732.35
  Q 142.43 732.69 142.11 732.32
  L 139.96 729.79
  C 136.36 726.66 130.91 727.90 126.84 729.52
  C 119.29 732.53 118.15 740.54 121.24 747.59
  Q 120.89 748.76 119.68 749.48
  Q 117.83 749.65 116.46 750.50
  Q 115.54 750.00 114.53 750.52
  C 104.13 755.80 99.47 768.28 97.14 779.05
  A 0.33 0.32 -25.9 0 0 97.75 779.26
  C 98.91 776.90 99.15 773.94 99.79 771.94
  Q 100.89 768.50 102.39 765.00
  A 0.56 0.56 0.0 0 1 103.47 765.15
  L 103.57 766.03
  Q 100.66 772.38 99.03 779.31
  A 0.90 0.88 -62.3 0 0 99.29 780.17
  C 104.23 784.75 113.30 784.18 119.34 782.93
  A 0.73 0.72 78.8 0 0 119.90 782.08
  C 118.43 774.71 122.47 773.71 124.29 767.98
  C 125.99 762.63 124.63 756.56 122.45 751.53
  L 123.57 749.67
  Q 128.73 754.54 133.83 749.30
  Q 135.99 751.79 135.32 754.97
  C 131.84 758.98 131.66 761.59 132.74 767.10
  C 135.05 778.86 131.97 789.47 125.82 799.58
  Q 125.51 800.10 126.08 800.28
  L 129.74 801.49
  Q 123.57 816.41 118.00 831.46
  Q 116.53 835.42 112.97 839.77
  C 110.42 842.88 104.69 844.15 100.95 845.42
  A 1.21 1.20 89.1 0 0 100.20 846.20
  Q 98.86 850.75 99.00 855.49
  A 0.65 0.65 0.0 0 0 99.52 856.10
  C 100.90 856.37 107.18 856.62 106.78 853.96
  A 0.74 0.73 82.6 0 0 105.98 853.34
  L 103.91 853.54
  Q 103.31 853.60 103.27 853.00
  Q 103.08 850.53 104.75 848.83
  A 1.69 1.68 16.8 0 1 105.61 848.37
  L 112.48 847.05
  A 1.51 1.49 -75.4 0 0 113.37 846.52
  Q 121.87 836.23 130.50 826.04
  Q 133.58 822.39 135.65 818.37
  Q 138.73 812.41 141.71 806.20
  Q 140.63 814.66 138.01 822.45
  A 0.57 0.57 0.0 0 0 138.40 823.17
  L 141.97 824.20
  C 136.56 834.59 134.92 845.50 139.10 856.54
  C 135.66 869.14 133.57 883.53 125.40 893.41
  C 120.96 898.77 115.14 904.49 112.37 910.77
  C 110.23 915.61 108.76 923.82 104.35 926.90
  C 90.30 936.71 91.04 951.69 88.19 966.74
  L 76.33 981.75
  A 0.57 0.57 0.0 0 0 76.60 982.64
  L 115.86 995.80
  Q 116.50 996.01 116.27 996.64
  L 115.06 999.93
  A 0.62 0.61 9.7 0 0 115.64 1000.75
  L 162.28 1000.75
  Q 162.96 1000.75 162.61 1000.16
  C 160.10 995.87 154.38 993.41 149.62 990.87
  C 145.30 988.56 141.93 985.75 138.36 982.67
  Q 141.35 971.19 142.73 967.24
  C 147.02 954.99 154.65 937.28 159.04 922.92
  C 169.19 889.78 173.69 855.13 176.57 820.20
  Q 177.66 792.98 165.76 768.48
  Q 165.54 768.03 165.91 767.71
  L 184.82 751.27
  A 0.83 0.81 65.6 0 0 185.10 750.50
  Q 184.28 745.26 180.60 740.89
  C 184.99 731.21 187.74 721.02 191.65 711.14
  C 192.10 710.02 193.04 709.08 193.87 708.25
  Q 194.25 707.87 194.79 707.76
  Q 197.34 707.23 198.40 704.85
  A 0.44 0.44 0.0 0 1 199.25 705.03
  L 199.25 707.52
  A 0.69 0.69 0.0 0 0 200.61 707.69
  Q 202.62 699.53 199.03 691.99
  Q 198.86 691.63 198.55 691.39
  L 197.64 690.71
  Q 197.08 690.30 197.54 689.78
  Q 200.57 686.39 201.65 682.04
  A 0.69 0.69 0.0 0 0 200.42 681.47
  Q 194.16 690.20 190.08 700.00
  Q 188.33 704.22 186.31 707.20
  Q 177.75 719.77 169.10 731.59
  Z
  M 349.73 746.64
  L 358.60 746.59
  L 371.36 746.65
  Q 372.00 746.65 372.00 746.02
  L 372.01 689.29
  Q 372.01 688.75 371.48 688.75
  L 369.74 688.75
  Q 369.24 688.75 369.24 689.26
  L 369.26 742.62
  Q 369.26 743.25 368.63 743.25
  L 361.51 743.25
  Q 361.01 743.25 361.01 742.76
  L 360.69 689.31
  Q 360.69 688.75 360.13 688.75
  L 359.16 688.75
  Q 358.49 688.75 358.51 689.42
  L 358.62 692.73
  L 349.75 692.70
  L 349.75 683.28
  A 0.62 0.62 0.0 0 0 349.13 682.66
  L 337.53 682.68
  A 0.54 0.53 90.0 0 0 337.00 683.22
  L 337.00 746.26
  Q 337.00 746.82 337.56 746.81
  L 349.73 746.64
  Z
  M 256.43 739.73
  L 256.46 736.89
  L 256.47 734.36
  L 256.47 731.47
  L 256.19 709.26
  A 0.72 0.72 0.0 0 1 257.60 709.07
  L 262.68 728.33
  Q 262.83 728.90 263.40 728.74
  L 269.57 727.02
  Q 270.07 726.88 269.94 726.38
  L 263.75 702.91
  Q 263.63 702.45 263.17 702.55
  L 257.75 703.77
  Q 257.30 703.87 256.76 703.75
  Q 256.28 703.63 256.23 703.13
  A 0.74 0.73 -2.5 0 0 255.49 702.47
  L 247.17 702.48
  Q 246.56 702.48 246.56 703.08
  L 246.27 745.56
  A 0.84 0.84 0.0 0 0 247.06 746.40
  L 255.59 746.94
  Q 256.25 746.99 256.26 746.33
  L 256.43 739.73
  Z
  M 222.96 732.26
  L 223.00 733.83
  L 223.02 737.30
  L 223.00 739.46
  Q 222.11 741.42 223.29 743.88
  A 0.99 0.97 -42.3 0 1 223.24 744.80
  Q 222.67 745.70 223.18 746.27
  Q 223.63 746.77 224.90 746.73
  Q 228.39 746.64 231.51 746.98
  Q 232.76 747.12 232.75 745.87
  L 232.69 734.22
  L 232.94 731.37
  L 232.61 703.11
  A 0.62 0.62 0.0 0 0 231.99 702.50
  L 223.41 702.50
  Q 222.81 702.50 222.81 703.09
  L 222.51 731.63
  Q 222.50 731.94 222.75 732.11
  L 222.96 732.26
  Z
  M 244.52 739.60
  L 244.52 737.99
  L 244.48 734.13
  L 244.45 731.27
  L 244.37 703.13
  Q 244.36 702.50 243.73 702.50
  L 235.22 702.50
  Q 234.69 702.50 234.69 703.03
  L 234.68 745.78
  Q 234.68 746.38 235.28 746.40
  L 243.67 746.74
  Q 244.14 746.76 244.17 746.28
  L 244.52 739.60
  Z
  M 278.06 731.28
  Q 277.23 733.38 278.27 734.96
  L 278.27 736.57
  Q 277.52 737.36 277.78 739.87
  L 277.77 746.13
  A 0.77 0.76 -0.7 0 0 278.57 746.90
  L 287.25 746.54
  Q 287.82 746.52 287.80 745.95
  L 287.69 739.96
  Q 288.07 737.79 287.30 736.42
  L 287.49 734.89
  Q 288.19 733.07 287.64 731.17
  L 287.67 703.16
  A 0.67 0.66 0.0 0 0 287.00 702.50
  L 279.01 702.50
  A 0.98 0.98 0.0 0 0 278.03 703.46
  Q 277.97 707.25 277.49 711.25
  Q 277.39 712.04 277.75 712.47
  Q 278.05 712.84 278.05 713.31
  L 278.06 731.28
  Z
  M 289.77 731.49
  Q 289.52 734.79 290.25 735.31
  L 289.96 736.38
  L 289.80 740.50
  L 289.80 745.95
  Q 289.80 746.54 290.40 746.56
  L 298.81 746.78
  Q 299.42 746.80 299.42 746.19
  L 299.45 740.06
  L 299.19 736.73
  L 299.21 734.95
  L 299.48 731.37
  L 299.44 703.17
  A 0.67 0.67 0.0 0 0 298.77 702.50
  L 290.27 702.50
  Q 289.76 702.50 289.76 703.00
  L 289.77 731.49
  Z
  M 301.51 731.57
  L 301.84 735.39
  Q 301.68 735.48 301.78 736.37
  L 301.78 740.08
  L 301.61 746.34
  Q 301.60 746.82 302.07 746.82
  L 310.65 746.82
  A 0.78 0.78 0.0 0 0 311.43 746.05
  L 311.49 739.77
  L 311.21 736.54
  Q 311.36 735.79 310.94 735.01
  Q 311.73 733.86 311.45 731.74
  L 311.39 703.12
  A 0.66 0.65 89.1 0 0 310.73 702.47
  L 302.44 702.57
  Q 301.81 702.58 301.77 703.20
  Q 300.82 717.63 301.51 731.57
  Z
  M 270.7570 729.0456
  A 0.51 0.51 0.0 0 0 270.1330 728.6839
  L 263.8323 730.3604
  A 0.51 0.51 0.0 0 0 263.4706 730.9843
  L 267.5230 746.2144
  A 0.51 0.51 0.0 0 0 268.1470 746.5761
  L 274.4477 744.8996
  A 0.51 0.51 0.0 0 0 274.8094 744.2757
  L 270.7570 729.0456
  Z
  M 310.36 790.80
  L 302.03 813.76
  A 0.43 0.42 -70.5 0 0 302.29 814.31
  L 309.48 816.80
  Q 310.01 816.98 310.19 816.45
  Q 310.69 815.01 311.38 814.27
  L 318.34 816.92
  Q 318.92 817.14 319.13 816.56
  L 322.57 807.32
  Q 322.78 806.75 322.28 807.08
  Q 321.61 807.52 320.99 807.28
  Q 318.06 806.14 314.57 805.12
  Q 314.49 802.30 316.14 800.80
  L 323.39 803.62
  Q 323.87 803.81 324.04 803.33
  L 335.99 770.98
  Q 336.35 771.10 336.35 771.32
  Q 335.76 793.81 336.27 816.36
  Q 336.28 816.85 336.78 816.87
  Q 350.22 817.49 363.61 816.22
  C 367.60 815.85 370.97 816.90 375.01 817.18
  Q 375.62 817.22 375.64 816.61
  Q 376.35 793.80 375.67 771.00
  Q 375.65 770.52 375.17 770.52
  L 336.23 770.50
  L 328.32 767.88
  Q 327.79 767.70 327.77 768.26
  Q 327.76 768.86 327.45 769.05
  Q 326.82 770.27 325.33 769.70
  Q 321.63 768.27 319.22 767.69
  Q 318.67 767.55 318.48 768.09
  L 310.36 790.80
  Z
  M 230.95 772.74
  L 230.22 773.57
  L 222.15 773.28
  A 0.68 0.67 0.8 0 0 221.45 773.95
  L 221.40 783.92
  L 221.28 805.84
  L 221.51 816.50
  Q 221.52 817.00 222.02 817.00
  L 230.34 817.00
  Q 231.00 817.00 230.90 816.35
  L 230.74 815.33
  L 231.26 787.27
  L 231.60 784.76
  L 233.68 816.46
  Q 233.72 817.02 234.28 816.99
  L 242.48 816.43
  Q 243.02 816.39 243.00 815.84
  Q 242.43 804.16 242.02 792.46
  C 241.86 787.95 240.82 782.60 241.01 777.98
  Q 241.09 775.86 241.37 777.96
  L 246.41 816.21
  A 0.70 0.70 0.0 0 0 247.20 816.81
  L 255.26 815.72
  A 0.67 0.67 0.0 0 0 255.84 815.02
  Q 255.75 812.51 255.25 808.49
  Q 252.66 787.82 250.12 772.81
  Q 250.03 772.26 249.48 772.35
  L 241.19 773.59
  Q 240.75 773.66 240.75 773.22
  L 240.75 772.21
  Q 240.75 771.54 240.09 771.52
  Q 235.12 771.39 231.69 771.89
  Q 230.98 771.99 230.95 772.74
  Z
  M 267.4867 774.2384
  A 0.71 0.71 0.0 0 0 266.7779 773.5272
  L 258.6179 773.5129
  A 0.71 0.71 0.0 0 0 257.9067 774.2217
  L 257.8333 816.2616
  A 0.71 0.71 0.0 0 0 258.5421 816.9728
  L 266.7021 816.9871
  A 0.71 0.71 0.0 0 0 267.4133 816.2783
  L 267.4867 774.2384
  Z
  M 269.53 798.65
  L 269.49 803.94
  L 269.23 808.57
  L 269.22 809.99
  L 269.55 816.55
  Q 269.57 817.11 270.13 817.11
  L 277.17 817.11
  Q 277.90 817.11 277.81 816.38
  Q 277.42 813.12 278.30 809.98
  A 1.88 1.86 -46.4 0 0 278.28 808.91
  Q 277.42 806.24 278.04 803.71
  L 278.06 798.66
  L 277.93 779.28
  A 1.11 1.11 0.0 0 0 276.76 778.18
  L 270.24 778.55
  A 0.77 0.76 -1.6 0 0 269.51 779.31
  L 269.53 798.65
  Z
  M 280.14 798.47
  L 280.29 803.47
  L 280.15 808.80
  Q 280.50 809.62 280.01 809.73
  L 280.26 816.46
  Q 280.28 817.05 280.87 817.07
  L 287.72 817.29
  A 0.73 0.72 -89.2 0 0 288.46 816.56
  L 288.48 810.72
  Q 288.87 810.25 288.45 808.65
  L 288.48 803.38
  L 288.49 798.31
  L 288.49 778.73
  A 0.55 0.54 89.0 0 0 287.93 778.18
  L 280.56 778.46
  Q 280.05 778.48 280.05 778.99
  L 280.14 798.47
  Z
  M 290.22 798.52
  L 290.23 803.64
  L 290.00 808.81
  L 290.12 810.92
  L 290.28 816.50
  Q 290.29 817.00 290.79 817.00
  L 297.97 817.00
  A 0.59 0.58 86.5 0 0 298.55 816.34
  Q 298.19 813.28 299.15 810.38
  A 1.69 1.64 -44.1 0 0 299.18 809.42
  C 298.38 806.52 299.07 803.13 298.98 800.91
  Q 298.55 790.06 298.81 779.13
  A 0.61 0.61 0.0 0 0 298.22 778.51
  L 291.00 778.27
  Q 290.37 778.25 290.36 778.88
  L 290.22 798.52
  Z
  M 400.8217 788.7808
  A 2.47 0.61 125.9 0 0 402.7641 787.1377
  A 2.47 0.61 125.9 0 0 403.7183 784.7792
  A 2.47 0.61 125.9 0 0 401.7759 786.4223
  A 2.47 0.61 125.9 0 0 400.8217 788.7808
  Z
  M 394.66 794.77
  Q 392.59 799.39 389.13 802.89
  Q 386.51 801.12 384.13 800.78
  A 1.51 1.51 0.0 0 0 382.58 802.99
  C 384.30 806.19 391.14 812.74 394.98 810.26
  A 0.68 0.68 0.0 0 0 395.23 809.40
  Q 393.67 806.01 390.27 803.39
  L 396.05 795.83
  C 397.94 797.19 403.05 799.99 405.26 798.90
  C 408.81 797.14 402.11 790.87 400.41 789.88
  Q 400.19 789.98 399.90 789.65
  C 398.09 787.93 391.23 783.66 389.36 786.84
  A 1.63 1.63 0.0 0 0 389.28 788.34
  Q 391.01 792.09 394.66 794.77
  Z
  M 386.4814 809.1812
  A 0.27 0.27 0.0 0 0 386.3955 808.8092
  L 386.2598 808.7244
  A 0.27 0.27 0.0 0 0 385.8877 808.8103
  L 380.0586 818.1388
  A 0.27 0.27 0.0 0 0 380.1445 818.5108
  L 380.2802 818.5956
  A 0.27 0.27 0.0 0 0 380.6523 818.5097
  L 386.4814 809.1812
  Z
  M 377.99 821.76
  L 378.83 820.08
  Q 379.04 819.65 378.59 819.49
  Q 374.94 818.16 371.27 819.22
  A 0.80 0.80 0.0 0 0 370.74 820.29
  C 372.31 824.19 380.18 826.11 384.27 825.62
  A 1.34 1.33 -23.7 0 0 385.13 823.43
  Q 383.29 821.27 380.65 820.27
  A 0.54 0.53 -60.7 0 0 380.05 820.44
  L 378.71 822.21
  A 0.43 0.43 0.0 0 1 377.99 821.76
  Z
  M 356.51 870.94
  L 356.57 873.73
  L 356.31 879.09
  Q 356.28 879.73 356.92 879.73
  L 366.73 879.73
  L 373.62 879.88
  Q 374.23 879.89 374.23 879.28
  L 374.32 835.88
  A 1.20 1.20 0.0 0 0 373.14 834.68
  L 366.63 834.58
  L 366.69 827.16
  Q 366.70 826.50 366.03 826.50
  L 357.01 826.50
  Q 356.36 826.50 356.36 827.15
  L 356.51 870.94
  Z
  M 275.79 850.81
  L 222.54 850.60
  A 0.70 0.70 0.0 0 0 221.83 851.33
  L 222.18 861.58
  Q 220.79 861.16 220.11 862.14
  Q 219.71 862.73 219.77 863.94
  Q 219.90 866.18 220.05 868.51
  Q 220.08 868.98 220.55 869.01
  L 224.44 869.28
  L 224.32 879.31
  A 0.45 0.45 0.0 0 0 224.77 879.77
  L 269.94 879.85
  L 280.89 879.90
  L 290.30 878.33
  Q 290.88 878.23 290.80 877.65
  L 289.71 869.83
  Q 289.65 867.88 288.73 866.52
  L 288.54 864.43
  Q 288.89 862.66 288.11 860.82
  L 283.59 831.66
  A 0.52 0.52 0.0 0 0 283.00 831.23
  L 273.77 832.59
  Q 273.25 832.67 273.33 833.18
  L 275.79 850.81
  Z
  M 290.60 862.81
  L 291.25 865.67
  Q 291.80 866.85 291.60 867.85
  L 292.21 871.92
  L 293.22 878.94
  Q 293.30 879.54 293.90 879.46
  L 303.04 878.31
  Q 303.61 878.24 303.51 877.67
  L 302.24 870.01
  Q 302.55 867.76 301.26 866.62
  L 301.25 864.24
  Q 301.74 862.72 301.00 861.17
  L 296.25 831.76
  Q 296.15 831.15 295.54 831.24
  L 286.59 832.60
  Q 286.05 832.69 286.14 833.22
  L 290.60 862.81
  Z
  M 303.31 862.55
  L 304.00 865.75
  Q 303.87 867.65 304.31 868.49
  Q 305.01 870.29 304.86 871.65
  L 305.97 879.12
  Q 306.04 879.59 306.51 879.53
  L 315.53 878.38
  Q 316.03 878.32 315.95 877.82
  L 314.77 870.04
  Q 314.92 868.24 314.25 866.60
  L 313.75 864.48
  Q 314.30 863.13 313.50 861.01
  L 308.94 831.74
  Q 308.85 831.13 308.24 831.22
  L 299.48 832.60
  A 0.83 0.83 0.0 0 0 298.79 833.55
  L 303.31 862.55
  Z"
    />
    <path fill="#146ec3" d="
  M 943.63 0.00
  L 1717.00 0.00
  L 1717.00 1221.00
  L 867.18 1221.00
  Q 885.25 1211.22 903.55 1204.29
  C 959.12 1183.23 1017.31 1163.34 1074.84 1138.14
  C 1190.59 1087.43 1306.01 1010.25 1353.47 886.70
  C 1361.07 866.90 1364.34 844.55 1364.85 823.18
  C 1366.18 767.62 1353.87 711.20 1337.90 658.28
  C 1313.89 578.72 1281.03 501.79 1243.57 427.69
  Q 1195.08 331.76 1135.95 240.30
  C 1089.44 168.36 1038.77 99.77 980.69 37.31
  Q 970.30 26.14 943.63 0.00
  Z"
    />
    <path fill="#f74959" d="
  M 225.80 676.26
  A 0.94 0.94 0.0 0 1 224.86 675.32
  L 224.86 639.47
  A 25.97 0.39 -90.0 0 1 225.25 613.50
  L 238.43 613.50
  A 25.97 0.39 90.0 0 1 238.82 639.47
  L 238.82 675.32
  A 0.94 0.94 0.0 0 1 237.88 676.26
  L 225.80 676.26
  Z"
    />
    <path fill="#f74959" d="
  M 240.93 674.33
  Q 240.08 644.11 240.90 614.10
  A 0.62 0.62 0.0 0 1 241.52 613.50
  L 253.81 613.50
  Q 254.31 613.50 254.31 614.00
  L 254.57 675.71
  Q 254.57 676.25 254.04 676.25
  L 241.29 676.25
  Q 240.87 676.25 240.78 675.84
  C 240.63 675.20 240.94 674.83 240.93 674.33
  Z"
    />
    <path fill="#146ec3" d="
  M 316.12 630.30
  Q 316.72 633.04 317.31 634.69
  Q 322.55 649.27 331.70 673.62
  L 324.00 676.28
  L 313.50 647.63
  Q 313.18 648.07 313.24 647.06
  L 307.22 630.48
  A 0.55 0.55 0.0 0 1 307.55 629.78
  L 314.19 627.29
  A 0.78 0.77 -32.1 0 1 315.02 627.47
  Q 315.96 628.45 316.12 630.30
  Z"
    />
    <path fill="#3486f6" d="
  M 326.23 632.56
  Q 326.25 633.19 326.74 634.02
  L 341.03 673.03
  A 0.45 0.44 70.3 0 1 340.77 673.59
  L 333.68 676.24
  Q 333.16 676.44 333.05 675.89
  Q 332.68 674.08 331.70 673.62
  Q 322.55 649.27 317.31 634.69
  Q 316.72 633.04 316.12 630.30
  L 323.63 627.35
  Q 324.19 627.13 324.40 627.69
  L 326.23 632.56
  Z"
    />
    <path fill="#a1c3fc" d="
  M 326.74 634.02
  Q 326.25 633.19 326.23 632.56
  L 333.26 628.77
  Q 333.73 628.52 333.97 628.99
  L 356.15 671.80
  A 0.74 0.74 0.0 0 1 355.83 672.79
  L 349.38 676.15
  A 0.64 0.63 -27.6 0 1 348.53 675.89
  Q 337.75 655.34 327.38 634.61
  Q 327.34 634.52 327.28 634.27
  Q 327.19 633.89 326.74 634.02
  Z"
    />
    <path fill="#f74959" d="
  M 313.24 647.06
  Q 313.18 648.07 313.50 647.63
  Q 313.26 648.31 312.95 648.68
  Q 312.65 649.02 311.91 649.02
  Q 287.60 648.94 263.25 649.06
  Q 262.75 649.06 262.75 649.56
  L 262.75 655.00
  Q 262.75 655.50 263.25 655.50
  L 312.54 655.50
  Q 313.28 655.50 313.21 656.24
  L 313.09 657.72
  Q 313.04 658.24 312.52 658.24
  L 302.67 658.18
  L 263.77 658.50
  L 259.67 658.20
  A 0.71 0.71 0.0 0 1 259.01 657.49
  L 258.96 647.75
  Q 258.95 647.07 259.64 647.07
  L 313.24 647.06
  Z"
    />
    <path fill="#f8f4f1" d="
  M 313.50 647.63
  L 324.00 676.28
  L 307.40 676.30
  Q 307.70 675.14 307.43 674.45
  A 0.60 0.60 0.0 0 0 306.87 674.07
  L 265.16 674.06
  Q 264.50 674.06 264.50 673.41
  L 264.50 668.38
  A 0.62 0.61 -0.0 0 1 265.12 667.77
  L 307.02 667.71
  Q 307.50 667.71 307.50 667.23
  L 307.50 666.18
  Q 307.50 665.52 306.84 665.55
  L 302.34 665.70
  L 302.67 658.18
  L 312.52 658.24
  Q 313.04 658.24 313.09 657.72
  L 313.21 656.24
  Q 313.28 655.50 312.54 655.50
  L 263.25 655.50
  Q 262.75 655.50 262.75 655.00
  L 262.75 649.56
  Q 262.75 649.06 263.25 649.06
  Q 287.60 648.94 311.91 649.02
  Q 312.65 649.02 312.95 648.68
  Q 313.26 648.31 313.50 647.63
  Z"
    />
    <path fill="#3486f6" d="
  M 263.77 658.50
  L 302.67 658.18
  L 302.34 665.70
  L 261.71 665.74
  L 257.19 665.50
  A 0.66 0.65 3.1 0 1 256.57 664.82
  L 256.82 658.71
  Q 256.84 658.18 257.38 658.20
  L 263.77 658.50
  Z"
    />
    <path fill="#f74959" d="
  M 302.34 665.70
  L 306.84 665.55
  Q 307.50 665.52 307.50 666.18
  L 307.50 667.23
  Q 307.50 667.71 307.02 667.71
  L 265.12 667.77
  A 0.62 0.61 0.0 0 0 264.50 668.38
  L 264.50 673.41
  Q 264.50 674.06 265.16 674.06
  L 306.87 674.07
  A 0.60 0.60 0.0 0 1 307.43 674.45
  Q 307.70 675.14 307.40 676.30
  L 262.18 676.24
  Q 261.66 676.24 261.67 675.73
  L 261.71 665.74
  L 302.34 665.70
  Z"
    />
    <path fill="#ffbeb6" d="
  M 180.60 740.89
  L 178.25 745.10
  A 1.23 1.22 38.5 0 1 176.27 745.32
  Q 171.18 739.63 169.10 731.59
  Q 177.75 719.77 186.31 707.20
  Q 188.33 704.22 190.08 700.00
  Q 194.16 690.20 200.42 681.47
  A 0.69 0.69 0.0 0 1 201.65 682.04
  Q 200.57 686.39 197.54 689.78
  Q 197.08 690.30 197.64 690.71
  L 198.55 691.39
  Q 198.86 691.63 199.03 691.99
  Q 202.62 699.53 200.61 707.69
  A 0.69 0.69 0.0 0 1 199.25 707.52
  L 199.25 705.03
  A 0.44 0.44 0.0 0 0 198.40 704.85
  Q 197.34 707.23 194.79 707.76
  Q 194.25 707.87 193.87 708.25
  C 193.04 709.08 192.10 710.02 191.65 711.14
  C 187.74 721.02 184.99 731.21 180.60 740.89
  Z"
    />
    <path fill="#f74959" d="
  M 349.75 692.70
  L 349.73 746.64
  L 337.56 746.81
  Q 337.00 746.82 337.00 746.26
  L 337.00 683.22
  A 0.54 0.53 -90.0 0 1 337.53 682.68
  L 349.13 682.66
  A 0.62 0.62 0.0 0 1 349.75 683.28
  L 349.75 692.70
  Z"
    />
    <path fill="#23286b" d="
  M 358.60 746.59
  L 358.62 692.73
  L 358.51 689.42
  Q 358.49 688.75 359.16 688.75
  L 360.13 688.75
  Q 360.69 688.75 360.69 689.31
  L 361.01 742.76
  Q 361.01 743.25 361.51 743.25
  L 368.63 743.25
  Q 369.26 743.25 369.26 742.62
  L 369.24 689.26
  Q 369.24 688.75 369.74 688.75
  L 371.48 688.75
  Q 372.01 688.75 372.01 689.29
  L 372.00 746.02
  Q 372.00 746.65 371.36 746.65
  L 358.60 746.59
  Z"
    />
    <path fill="#3486f6" d="
  M 358.62 692.73
  L 358.60 746.59
  L 349.73 746.64
  L 349.75 692.70
  L 358.62 692.73
  Z"
    />
    <path fill="#a1c3fc" d="
  M 256.47 731.47
  L 247.67 731.51
  A 1.27 1.27 0.0 0 0 247.39 734.02
  Q 251.57 734.97 256.47 734.36
  L 256.46 736.89
  L 247.86 737.53
  A 1.13 1.12 -42.0 0 0 247.74 739.76
  Q 251.88 740.49 256.43 739.73
  L 256.26 746.33
  Q 256.25 746.99 255.59 746.94
  L 247.06 746.40
  A 0.84 0.84 0.0 0 1 246.27 745.56
  L 246.56 703.08
  Q 246.56 702.48 247.17 702.48
  L 255.49 702.47
  A 0.74 0.73 -2.5 0 1 256.23 703.13
  Q 256.28 703.63 256.76 703.75
  Q 257.30 703.87 257.75 703.77
  L 263.17 702.55
  Q 263.63 702.45 263.75 702.91
  L 269.94 726.38
  Q 270.07 726.88 269.57 727.02
  L 263.40 728.74
  Q 262.83 728.90 262.68 728.33
  L 257.60 709.07
  A 0.72 0.72 0.0 0 0 256.19 709.26
  L 256.47 731.47
  Z"
    />
    <path fill="#a1c3fc" d="
  M 232.94 731.37
  Q 228.07 731.61 223.75 731.68
  Q 223.20 731.69 222.96 732.26
  L 222.75 732.11
  Q 222.50 731.94 222.51 731.63
  L 222.81 703.09
  Q 222.81 702.50 223.41 702.50
  L 231.99 702.50
  A 0.62 0.62 0.0 0 1 232.61 703.11
  L 232.94 731.37
  Z"
    />
    <path fill="#a1c3fc" d="
  M 244.45 731.27
  L 235.87 731.48
  A 1.10 1.10 0.0 0 0 235.55 733.63
  Q 239.59 734.97 244.48 734.13
  L 244.52 737.99
  Q 240.49 736.59 235.81 737.44
  A 1.17 1.16 -42.3 0 0 235.70 739.71
  Q 239.71 740.83 244.52 739.60
  L 244.17 746.28
  Q 244.14 746.76 243.67 746.74
  L 235.28 746.40
  Q 234.68 746.38 234.68 745.78
  L 234.69 703.03
  Q 234.69 702.50 235.22 702.50
  L 243.73 702.50
  Q 244.36 702.50 244.37 703.13
  L 244.45 731.27
  Z"
    />
    <path fill="#a1c3fc" d="
  M 287.64 731.17
  L 278.06 731.28
  L 278.05 713.31
  Q 278.05 712.84 277.75 712.47
  Q 277.39 712.04 277.49 711.25
  Q 277.97 707.25 278.03 703.46
  A 0.98 0.98 0.0 0 1 279.01 702.50
  L 287.00 702.50
  A 0.67 0.66 0.0 0 1 287.67 703.16
  L 287.64 731.17
  Z"
    />
    <path fill="#a1c3fc" d="
  M 299.48 731.37
  L 289.77 731.49
  L 289.76 703.00
  Q 289.76 702.50 290.27 702.50
  L 298.77 702.50
  A 0.67 0.67 0.0 0 1 299.44 703.17
  L 299.48 731.37
  Z"
    />
    <path fill="#a1c3fc" d="
  M 311.45 731.74
  L 301.51 731.57
  Q 300.82 717.63 301.77 703.20
  Q 301.81 702.58 302.44 702.57
  L 310.73 702.47
  A 0.66 0.65 89.1 0 1 311.39 703.12
  L 311.45 731.74
  Z"
    />
    <path fill="#f74959" d="
  M 139.96 729.79
  L 137.23 731.59
  Q 136.80 731.88 136.76 732.38
  Q 136.62 734.00 137.28 735.47
  A 2.53 2.53 0.0 0 1 136.81 738.24
  L 132.56 742.72
  Q 132.15 743.15 132.46 743.66
  L 134.40 746.80
  Q 134.69 747.27 134.58 747.80
  Q 134.37 748.81 133.83 749.30
  Q 128.73 754.54 123.57 749.67
  Q 122.88 747.78 121.24 747.59
  C 118.15 740.54 119.29 732.53 126.84 729.52
  C 130.91 727.90 136.36 726.66 139.96 729.79
  Z"
    />
    <rect fill="#a1c3fc" x="-3.77" y="-8.39" transform="translate(269.14,737.63) rotate(-14.9)" width="7.54"
          height="16.78" rx="0.51"/>
    <path fill="#ffbeb6" d="
  M 139.96 729.79
  L 142.11 732.32
  Q 142.43 732.69 142.78 732.35
  L 143.21 731.91
  Q 143.57 731.56 143.85 731.97
  Q 144.17 732.42 143.90 733.03
  Q 143.63 733.62 144.28 733.58
  Q 146.04 733.46 146.20 734.98
  C 146.75 740.40 146.88 745.02 142.79 749.46
  Q 142.44 749.84 142.49 750.35
  L 142.69 752.58
  Q 140.76 755.01 135.32 754.97
  Q 135.99 751.79 133.83 749.30
  Q 134.37 748.81 134.58 747.80
  Q 134.69 747.27 134.40 746.80
  L 132.46 743.66
  Q 132.15 743.15 132.56 742.72
  L 136.81 738.24
  A 2.53 2.53 0.0 0 0 137.28 735.47
  Q 136.62 734.00 136.76 732.38
  Q 136.80 731.88 137.23 731.59
  L 139.96 729.79
  Z"
    />
    <path fill="#3486f6" d="
  M 244.45 731.27
  L 244.48 734.13
  Q 239.59 734.97 235.55 733.63
  A 1.10 1.10 0.0 0 1 235.87 731.48
  L 244.45 731.27
  Z"
    />
    <path fill="#3486f6" d="
  M 299.48 731.37
  L 299.21 734.95
  Q 294.24 733.95 290.25 735.31
  Q 289.52 734.79 289.77 731.49
  L 299.48 731.37
  Z"
    />
    <path fill="#3486f6" d="
  M 232.94 731.37
  L 232.69 734.22
  Q 228.11 734.95 223.00 733.83
  L 222.96 732.26
  Q 223.20 731.69 223.75 731.68
  Q 228.07 731.61 232.94 731.37
  Z"
    />
    <path fill="#3486f6" d="
  M 256.47 731.47
  L 256.47 734.36
  Q 251.57 734.97 247.39 734.02
  A 1.27 1.27 0.0 0 1 247.67 731.51
  L 256.47 731.47
  Z"
    />
    <path fill="#3486f6" d="
  M 278.06 731.28
  L 287.64 731.17
  Q 288.19 733.07 287.49 734.89
  Q 282.65 734.16 278.27 734.96
  Q 277.23 733.38 278.06 731.28
  Z"
    />
    <path fill="#3486f6" d="
  M 311.45 731.74
  Q 311.73 733.86 310.94 735.01
  Q 306.43 733.58 301.84 735.39
  L 301.51 731.57
  L 311.45 731.74
  Z"
    />
    <path fill="#fbb03b" d="
  M 169.10 731.59
  Q 171.18 739.63 176.27 745.32
  A 1.23 1.22 38.5 0 0 178.25 745.10
  L 180.60 740.89
  Q 184.28 745.26 185.10 750.50
  A 0.83 0.81 65.6 0 1 184.82 751.27
  L 165.91 767.71
  Q 165.54 768.03 165.76 768.48
  Q 177.66 792.98 176.57 820.20
  C 169.65 819.25 162.56 822.94 157.73 824.22
  Q 150.10 826.24 141.97 824.20
  L 138.40 823.17
  A 0.57 0.57 0.0 0 1 138.01 822.45
  Q 140.63 814.66 141.71 806.20
  L 129.74 801.49
  L 126.08 800.28
  Q 125.51 800.10 125.82 799.58
  C 131.97 789.47 135.05 778.86 132.74 767.10
  C 131.66 761.59 131.84 758.98 135.32 754.97
  Q 140.76 755.01 142.69 752.58
  L 169.10 731.59
  Z"
    />
    <path fill="#a1c3fc" d="
  M 223.00 733.83
  Q 228.11 734.95 232.69 734.22
  L 232.75 745.87
  Q 232.76 747.12 231.51 746.98
  Q 228.39 746.64 224.90 746.73
  Q 223.63 746.77 223.18 746.27
  Q 222.67 745.70 223.24 744.80
  A 0.99 0.97 -42.3 0 0 223.29 743.88
  Q 222.11 741.42 223.00 739.46
  Q 227.43 740.72 231.83 739.58
  A 1.23 1.23 0.0 0 0 231.50 737.16
  L 223.02 737.30
  L 223.00 733.83
  Z"
    />
    <path fill="#a1c3fc" d="
  M 310.94 735.01
  Q 311.36 735.79 311.21 736.54
  Q 306.38 737.16 301.78 736.37
  Q 301.68 735.48 301.84 735.39
  Q 306.43 733.58 310.94 735.01
  Z"
    />
    <path fill="#a1c3fc" d="
  M 287.49 734.89
  L 287.30 736.42
  L 278.27 736.57
  L 278.27 734.96
  Q 282.65 734.16 287.49 734.89
  Z"
    />
    <path fill="#a1c3fc" d="
  M 299.21 734.95
  L 299.19 736.73
  L 289.96 736.38
  L 290.25 735.31
  Q 294.24 733.95 299.21 734.95
  Z"
    />
    <path fill="#3486f6" d="
  M 289.96 736.38
  L 299.19 736.73
  L 299.45 740.06
  L 289.80 740.50
  L 289.96 736.38
  Z"
    />
    <path fill="#3486f6" d="
  M 301.78 736.37
  Q 306.38 737.16 311.21 736.54
  L 311.49 739.77
  L 301.78 740.08
  L 301.78 736.37
  Z"
    />
    <path fill="#3486f6" d="
  M 278.27 736.57
  L 287.30 736.42
  Q 288.07 737.79 287.69 739.96
  L 277.78 739.87
  Q 277.52 737.36 278.27 736.57
  Z"
    />
    <path fill="#3486f6" d="
  M 256.46 736.89
  L 256.43 739.73
  Q 251.88 740.49 247.74 739.76
  A 1.13 1.12 -42.0 0 1 247.86 737.53
  L 256.46 736.89
  Z"
    />
    <path fill="#3486f6" d="
  M 223.00 739.46
  L 223.02 737.30
  L 231.50 737.16
  A 1.23 1.23 0.0 0 1 231.83 739.58
  Q 227.43 740.72 223.00 739.46
  Z"
    />
    <path fill="#3486f6" d="
  M 244.52 737.99
  L 244.52 739.60
  Q 239.71 740.83 235.70 739.71
  A 1.17 1.16 -42.3 0 1 235.81 737.44
  Q 240.49 736.59 244.52 737.99
  Z"
    />
    <path fill="#a1c3fc" d="
  M 277.78 739.87
  L 287.69 739.96
  L 287.80 745.95
  Q 287.82 746.52 287.25 746.54
  L 278.57 746.90
  A 0.77 0.76 -0.7 0 1 277.77 746.13
  L 277.78 739.87
  Z"
    />
    <path fill="#a1c3fc" d="
  M 311.49 739.77
  L 311.43 746.05
  A 0.78 0.78 0.0 0 1 310.65 746.82
  L 302.07 746.82
  Q 301.60 746.82 301.61 746.34
  L 301.78 740.08
  L 311.49 739.77
  Z"
    />
    <path fill="#a1c3fc" d="
  M 299.45 740.06
  L 299.42 746.19
  Q 299.42 746.80 298.81 746.78
  L 290.40 746.56
  Q 289.80 746.54 289.80 745.95
  L 289.80 740.50
  L 299.45 740.06
  Z"
    />
    <path fill="#3486f6" d="
  M 121.24 747.59
  Q 122.88 747.78 123.57 749.67
  L 122.45 751.53
  Q 120.68 750.99 119.68 749.48
  Q 120.89 748.76 121.24 747.59
  Z"
    />
    <path fill="#f74959" d="
  M 119.68 749.48
  Q 120.68 750.99 122.45 751.53
  C 124.63 756.56 125.99 762.63 124.29 767.98
  C 122.47 773.71 118.43 774.71 119.90 782.08
  A 0.73 0.72 78.8 0 1 119.34 782.93
  C 113.30 784.18 104.23 784.75 99.29 780.17
  A 0.90 0.88 -62.3 0 1 99.03 779.31
  Q 100.66 772.38 103.57 766.03
  Q 104.32 765.06 105.70 762.21
  Q 109.13 755.10 116.46 750.50
  Q 117.83 749.65 119.68 749.48
  Z"
    />
    <path fill="#ffbeb6" d="
  M 116.46 750.50
  Q 109.13 755.10 105.70 762.21
  Q 104.32 765.06 103.57 766.03
  L 103.47 765.15
  A 0.56 0.56 0.0 0 0 102.39 765.00
  Q 100.89 768.50 99.79 771.94
  C 99.15 773.94 98.91 776.90 97.75 779.26
  A 0.33 0.32 -25.9 0 1 97.14 779.05
  C 99.47 768.28 104.13 755.80 114.53 750.52
  Q 115.54 750.00 116.46 750.50
  Z"
    />
    <path fill="#a1c3fc" d="
  M 327.45 769.05
  Q 327.84 769.70 327.62 770.00
  Q 327.55 770.10 327.53 770.16
  Q 322.91 782.09 318.57 793.98
  L 310.36 790.80
  L 318.48 768.09
  Q 318.67 767.55 319.22 767.69
  Q 321.63 768.27 325.33 769.70
  Q 326.82 770.27 327.45 769.05
  Z"
    />
    <path fill="#146ec3" d="
  M 336.23 770.50
  Q 336.16 770.76 335.99 770.98
  L 324.04 803.33
  Q 323.87 803.81 323.39 803.62
  L 316.14 800.80
  L 318.57 793.98
  Q 322.91 782.09 327.53 770.16
  Q 327.55 770.10 327.62 770.00
  Q 327.84 769.70 327.45 769.05
  Q 327.76 768.86 327.77 768.26
  Q 327.79 767.70 328.32 767.88
  L 336.23 770.50
  Z"
    />
    <path fill="#a1c3fc" d="
  M 335.99 770.98
  Q 336.16 770.76 336.23 770.50
  L 375.17 770.52
  Q 375.65 770.52 375.67 771.00
  Q 376.35 793.80 375.64 816.61
  Q 375.62 817.22 375.01 817.18
  C 370.97 816.90 367.60 815.85 363.61 816.22
  Q 350.22 817.49 336.78 816.87
  Q 336.28 816.85 336.27 816.36
  Q 335.76 793.81 336.35 771.32
  Q 336.35 771.10 335.99 770.98
  Z"
    />
    <path fill="#f74959" d="
  M 231.60 784.76
  L 231.45 774.13
  Q 231.44 773.67 231.16 773.30
  Q 230.98 773.06 230.95 772.74
  Q 230.98 771.99 231.69 771.89
  Q 235.12 771.39 240.09 771.52
  Q 240.75 771.54 240.75 772.21
  L 240.75 773.22
  Q 240.75 773.66 241.19 773.59
  L 249.48 772.35
  Q 250.03 772.26 250.12 772.81
  Q 252.66 787.82 255.25 808.49
  Q 255.75 812.51 255.84 815.02
  A 0.67 0.67 0.0 0 1 255.26 815.72
  L 247.20 816.81
  A 0.70 0.70 0.0 0 1 246.41 816.21
  L 241.37 777.96
  Q 241.09 775.86 241.01 777.98
  C 240.82 782.60 241.86 787.95 242.02 792.46
  Q 242.43 804.16 243.00 815.84
  Q 243.02 816.39 242.48 816.43
  L 234.28 816.99
  Q 233.72 817.02 233.68 816.46
  L 231.60 784.76
  Z"
    />
    <path fill="#ffbeb6" d="
  M 230.95 772.74
  Q 230.98 773.06 231.16 773.30
  Q 231.44 773.67 231.45 774.13
  L 231.60 784.76
  L 231.26 787.27
  Q 231.23 785.86 230.72 784.74
  Q 230.53 780.23 230.81 776.25
  Q 230.92 774.65 230.22 773.57
  L 230.95 772.74
  Z"
    />
    <path fill="#23286b" d="
  M 230.22 773.57
  Q 230.92 774.65 230.81 776.25
  Q 230.53 780.23 230.72 784.74
  Q 224.94 786.98 221.40 783.92
  L 221.45 773.95
  A 0.68 0.67 0.8 0 1 222.15 773.28
  L 230.22 773.57
  Z"
    />
    <rect fill="#f74959" x="-4.79" y="-21.73" transform="translate(262.66,795.25) rotate(0.1)" width="9.58"
          height="43.46" rx="0.71"/>
    <path fill="#a1c3fc" d="
  M 278.06 798.66
  L 269.53 798.65
  L 269.51 779.31
  A 0.77 0.76 -1.6 0 1 270.24 778.55
  L 276.76 778.18
  A 1.11 1.11 0.0 0 1 277.93 779.28
  L 278.06 798.66
  Z"
    />
    <path fill="#a1c3fc" d="
  M 288.49 798.31
  L 280.14 798.47
  L 280.05 778.99
  Q 280.05 778.48 280.56 778.46
  L 287.93 778.18
  A 0.55 0.54 89.0 0 1 288.49 778.73
  L 288.49 798.31
  Z"
    />
    <path fill="#a1c3fc" d="
  M 290.12 810.92
  L 297.93 810.79
  Q 298.50 810.78 298.50 810.21
  L 298.50 809.23
  A 0.62 0.62 0.0 0 0 297.86 808.61
  L 290.00 808.81
  L 290.23 803.64
  L 297.85 803.66
  Q 298.50 803.66 298.50 803.02
  L 298.50 799.22
  A 0.68 0.67 -90.0 0 0 297.83 798.54
  L 290.22 798.52
  L 290.36 778.88
  Q 290.37 778.25 291.00 778.27
  L 298.22 778.51
  A 0.61 0.61 0.0 0 1 298.81 779.13
  Q 298.55 790.06 298.98 800.91
  C 299.07 803.13 298.38 806.52 299.18 809.42
  A 1.69 1.64 -44.1 0 1 299.15 810.38
  Q 298.19 813.28 298.55 816.34
  A 0.59 0.58 86.5 0 1 297.97 817.00
  L 290.79 817.00
  Q 290.29 817.00 290.28 816.50
  L 290.12 810.92
  Z"
    />
    <path fill="#146ec3" d="
  M 221.40 783.92
  Q 224.94 786.98 230.72 784.74
  Q 231.23 785.86 231.26 787.27
  L 230.74 815.33
  L 230.22 806.20
  Q 230.19 805.63 229.62 805.64
  L 221.28 805.84
  L 221.40 783.92
  Z"
    />
    <ellipse fill="#a1c3fc" cx="0.00" cy="0.00" transform="translate(402.27,786.78) rotate(125.9)" rx="2.47" ry="0.61"/>
    <path fill="#23286b" d="
  M 399.90 789.65
  Q 398.31 790.26 397.71 791.27
  Q 397.38 791.84 398.04 791.84
  Q 399.52 791.84 400.41 789.88
  C 402.11 790.87 408.81 797.14 405.26 798.90
  C 403.05 799.99 397.94 797.19 396.05 795.83
  L 394.66 794.77
  Q 391.01 792.09 389.28 788.34
  A 1.63 1.63 0.0 0 1 389.36 786.84
  C 391.23 783.66 398.09 787.93 399.90 789.65
  Z"
    />
    <path fill="#a1c3fc" d="
  M 399.90 789.65
  Q 400.19 789.98 400.41 789.88
  Q 399.52 791.84 398.04 791.84
  Q 397.38 791.84 397.71 791.27
  Q 398.31 790.26 399.90 789.65
  Z"
    />
    <path fill="#3486f6" d="
  M 310.36 790.80
  L 318.57 793.98
  L 316.14 800.80
  Q 314.49 802.30 314.57 805.12
  L 311.38 814.27
  Q 310.69 815.01 310.19 816.45
  Q 310.01 816.98 309.48 816.80
  L 302.29 814.31
  A 0.43 0.42 -70.5 0 1 302.03 813.76
  L 310.36 790.80
  Z"
    />
    <path fill="#a1c3fc" d="
  M 394.66 794.77
  L 396.05 795.83
  L 390.27 803.39
  Q 389.78 805.64 388.54 805.45
  Q 387.95 805.36 388.21 804.82
  L 389.13 802.89
  Q 392.59 799.39 394.66 794.77
  Z"
    />
    <path fill="#3486f6" d="
  M 288.49 798.31
  L 288.48 803.38
  L 280.29 803.47
  L 280.14 798.47
  L 288.49 798.31
  Z"
    />
    <path fill="#3486f6" d="
  M 278.06 798.66
  L 278.04 803.71
  L 269.49 803.94
  L 269.53 798.65
  L 278.06 798.66
  Z"
    />
    <path fill="#3486f6" d="
  M 290.22 798.52
  L 297.83 798.54
  A 0.68 0.67 90.0 0 1 298.50 799.22
  L 298.50 803.02
  Q 298.50 803.66 297.85 803.66
  L 290.23 803.64
  L 290.22 798.52
  Z"
    />
    <path fill="#23286b" d="
  M 389.13 802.89
  L 388.21 804.82
  Q 387.95 805.36 388.54 805.45
  Q 389.78 805.64 390.27 803.39
  Q 393.67 806.01 395.23 809.40
  A 0.68 0.68 0.0 0 1 394.98 810.26
  C 391.14 812.74 384.30 806.19 382.58 802.99
  A 1.51 1.51 0.0 0 1 384.13 800.78
  Q 386.51 801.12 389.13 802.89
  Z"
    />
    <path fill="#ffbeb6" d="
  M 129.74 801.49
  L 141.71 806.20
  Q 138.73 812.41 135.65 818.37
  Q 133.58 822.39 130.50 826.04
  Q 121.87 836.23 113.37 846.52
  A 1.51 1.49 -75.4 0 1 112.48 847.05
  L 105.61 848.37
  A 1.69 1.68 16.8 0 0 104.75 848.83
  Q 103.08 850.53 103.27 853.00
  Q 103.31 853.60 103.91 853.54
  L 105.98 853.34
  A 0.74 0.73 82.6 0 1 106.78 853.96
  C 107.18 856.62 100.90 856.37 99.52 856.10
  A 0.65 0.65 0.0 0 1 99.00 855.49
  Q 98.86 850.75 100.20 846.20
  A 1.21 1.20 89.1 0 1 100.95 845.42
  C 104.69 844.15 110.42 842.88 112.97 839.77
  Q 116.53 835.42 118.00 831.46
  Q 123.57 816.41 129.74 801.49
  Z"
    />
    <path fill="#a1c3fc" d="
  M 288.48 803.38
  L 288.45 808.65
  L 280.15 808.80
  L 280.29 803.47
  L 288.48 803.38
  Z"
    />
    <path fill="#a1c3fc" d="
  M 278.04 803.71
  Q 277.42 806.24 278.28 808.91
  A 1.88 1.86 -46.4 0 1 278.30 809.98
  Q 277.42 813.12 277.81 816.38
  Q 277.90 817.11 277.17 817.11
  L 270.13 817.11
  Q 269.57 817.11 269.55 816.55
  L 269.22 809.99
  C 270.70 811.50 275.43 810.70 277.45 810.77
  A 0.64 0.63 -17.1 0 0 277.99 809.76
  C 276.52 807.75 271.36 808.42 269.23 808.57
  L 269.49 803.94
  L 278.04 803.71
  Z"
    />
    <path fill="#146ec3" d="
  M 314.57 805.12
  Q 318.06 806.14 320.99 807.28
  Q 321.61 807.52 322.28 807.08
  Q 322.78 806.75 322.57 807.32
  L 319.13 816.56
  Q 318.92 817.14 318.34 816.92
  L 311.38 814.27
  L 314.57 805.12
  Z"
    />
    <path fill="#23286b" d="
  M 230.74 815.33
  L 230.90 816.35
  Q 231.00 817.00 230.34 817.00
  L 222.02 817.00
  Q 221.52 817.00 221.51 816.50
  L 221.28 805.84
  L 229.62 805.64
  Q 230.19 805.63 230.22 806.20
  L 230.74 815.33
  Z"
    />
    <path fill="#3486f6" d="
  M 269.22 809.99
  L 269.23 808.57
  C 271.36 808.42 276.52 807.75 277.99 809.76
  A 0.64 0.63 -17.1 0 1 277.45 810.77
  C 275.43 810.70 270.70 811.50 269.22 809.99
  Z"
    />
    <path fill="#3486f6" d="
  M 288.45 808.65
  Q 288.87 810.25 288.48 810.72
  Q 284.67 811.04 280.94 810.56
  Q 280.47 810.50 280.01 809.73
  Q 280.50 809.62 280.15 808.80
  L 288.45 808.65
  Z"
    />
    <path fill="#3486f6" d="
  M 290.12 810.92
  L 290.00 808.81
  L 297.86 808.61
  A 0.62 0.62 0.0 0 1 298.50 809.23
  L 298.50 810.21
  Q 298.50 810.78 297.93 810.79
  L 290.12 810.92
  Z"
    />
    <rect fill="#a1c3fc" x="-0.35" y="-5.77" transform="translate(383.27,813.66) rotate(32.0)" width="0.70"
          height="11.54" rx="0.27"/>
    <path fill="#a1c3fc" d="
  M 280.01 809.73
  Q 280.47 810.50 280.94 810.56
  Q 284.67 811.04 288.48 810.72
  L 288.46 816.56
  A 0.73 0.72 -89.2 0 1 287.72 817.29
  L 280.87 817.07
  Q 280.28 817.05 280.26 816.46
  L 280.01 809.73
  Z"
    />
    <path fill="#23286b" d="
  M 378.71 822.21
  L 380.05 820.44
  A 0.54 0.53 -60.7 0 1 380.65 820.27
  Q 383.29 821.27 385.13 823.43
  A 1.34 1.33 -23.7 0 1 384.27 825.62
  C 380.18 826.11 372.31 824.19 370.74 820.29
  A 0.80 0.80 0.0 0 1 371.27 819.22
  Q 374.94 818.16 378.59 819.49
  Q 379.04 819.65 378.83 820.08
  L 377.99 821.76
  A 0.43 0.43 0.0 0 0 378.71 822.21
  Z"
    />
    <path fill="#3486f6" d="
  M 176.57 820.20
  C 173.69 855.13 169.19 889.78 159.04 922.92
  C 154.65 937.28 147.02 954.99 142.73 967.24
  Q 141.35 971.19 138.36 982.67
  L 121.29 982.71
  C 117.57 971.86 115.97 962.25 120.83 951.43
  Q 125.49 941.96 126.07 937.01
  C 126.52 933.14 124.78 928.03 126.38 922.98
  C 128.17 917.32 132.63 912.69 134.41 906.79
  C 138.52 893.19 143.20 875.94 142.19 861.83
  Q 141.97 858.73 139.10 856.54
  C 134.92 845.50 136.56 834.59 141.97 824.20
  Q 150.10 826.24 157.73 824.22
  C 162.56 822.94 169.65 819.25 176.57 820.20
  Z"
    />
    <path fill="#f74959" d="
  M 366.63 834.58
  L 366.92 840.03
  L 363.08 839.72
  A 1.04 1.04 0.0 0 0 362.15 841.35
  Q 363.48 843.26 366.02 844.51
  L 366.14 844.78
  Q 366.24 845.02 366.14 845.26
  Q 360.66 857.57 356.51 870.94
  L 356.36 827.15
  Q 356.36 826.50 357.01 826.50
  L 366.03 826.50
  Q 366.70 826.50 366.69 827.16
  L 366.63 834.58
  Z"
    />
    <path fill="#a1c3fc" d="
  M 288.11 860.82
  L 277.95 862.58
  Q 277.84 856.54 275.89 852.48
  L 275.79 850.81
  L 273.33 833.18
  Q 273.25 832.67 273.77 832.59
  L 283.00 831.23
  A 0.52 0.52 0.0 0 1 283.59 831.66
  L 288.11 860.82
  Z"
    />
    <path fill="#a1c3fc" d="
  M 301.00 861.17
  L 290.60 862.81
  L 286.14 833.22
  Q 286.05 832.69 286.59 832.60
  L 295.54 831.24
  Q 296.15 831.15 296.25 831.76
  L 301.00 861.17
  Z"
    />
    <path fill="#a1c3fc" d="
  M 313.50 861.01
  L 303.31 862.55
  L 298.79 833.55
  A 0.83 0.83 0.0 0 1 299.48 832.60
  L 308.24 831.22
  Q 308.85 831.13 308.94 831.74
  L 313.50 861.01
  Z"
    />
    <path fill="#3486f6" d="
  M 366.63 834.58
  L 373.14 834.68
  A 1.20 1.20 0.0 0 1 374.32 835.88
  L 374.23 879.28
  Q 374.23 879.89 373.62 879.88
  L 366.73 879.73
  L 366.88 847.01
  Q 367.34 845.86 367.07 844.94
  Q 370.12 846.39 372.84 846.01
  A 1.04 1.04 0.0 0 0 373.40 844.21
  L 370.23 841.28
  A 0.62 0.61 41.5 0 0 369.35 841.33
  L 367.99 842.95
  A 0.50 0.50 0.0 0 1 367.14 842.44
  L 367.69 841.04
  A 0.74 0.74 0.0 0 0 367.18 840.06
  Q 367.06 840.03 366.92 840.03
  L 366.63 834.58
  Z"
    />
    <path fill="#23286b" d="
  M 366.92 840.03
  Q 367.06 840.03 367.18 840.06
  A 0.74 0.74 0.0 0 1 367.69 841.04
  L 367.14 842.44
  A 0.50 0.50 0.0 0 0 367.99 842.95
  L 369.35 841.33
  A 0.62 0.61 41.5 0 1 370.23 841.28
  L 373.40 844.21
  A 1.04 1.04 0.0 0 1 372.84 846.01
  Q 370.12 846.39 367.07 844.94
  Q 366.55 844.53 366.02 844.51
  Q 363.48 843.26 362.15 841.35
  A 1.04 1.04 0.0 0 1 363.08 839.72
  L 366.92 840.03
  Z"
    />
    <path fill="#a1c3fc" d="
  M 366.02 844.51
  Q 366.55 844.53 367.07 844.94
  Q 367.34 845.86 366.88 847.01
  Q 366.39 847.73 365.99 848.64
  Q 360.56 860.95 356.57 873.73
  L 356.51 870.94
  Q 360.66 857.57 366.14 845.26
  Q 366.24 845.02 366.14 844.78
  L 366.02 844.51
  Z"
    />
    <path fill="#f74959" d="
  M 366.88 847.01
  L 366.73 879.73
  L 356.92 879.73
  Q 356.28 879.73 356.31 879.09
  L 356.57 873.73
  Q 360.56 860.95 365.99 848.64
  Q 366.39 847.73 366.88 847.01
  Z"
    />
    <path fill="#f74959" d="
  M 275.79 850.81
  L 275.89 852.48
  L 225.97 852.50
  Q 225.43 852.50 225.44 853.03
  L 225.53 858.89
  Q 225.54 859.50 226.14 859.50
  L 275.20 859.50
  A 0.97 0.96 -87.5 0 1 276.16 860.55
  Q 276.05 861.76 274.50 861.66
  Q 270.90 861.42 267.17 861.58
  L 222.18 861.58
  L 221.83 851.33
  A 0.70 0.70 0.0 0 1 222.54 850.60
  L 275.79 850.81
  Z"
    />
    <path fill="#f8f4f1" d="
  M 275.89 852.48
  Q 277.84 856.54 277.95 862.58
  Q 277.94 864.42 278.75 865.88
  L 279.08 868.15
  Q 278.65 870.13 279.74 871.67
  L 280.89 879.90
  L 269.94 879.85
  Q 270.48 878.73 270.22 878.05
  Q 270.09 877.72 269.74 877.72
  L 227.95 877.76
  A 0.56 0.55 0.5 0 1 227.39 877.20
  L 227.43 871.66
  A 0.41 0.41 0.0 0 1 227.84 871.25
  L 269.69 871.25
  Q 270.40 871.25 270.28 870.55
  L 270.11 869.57
  Q 270.00 868.92 269.35 868.98
  L 266.61 869.26
  Q 268.24 866.32 267.17 861.58
  Q 270.90 861.42 274.50 861.66
  Q 276.05 861.76 276.16 860.55
  A 0.97 0.96 -87.5 0 0 275.20 859.50
  L 226.14 859.50
  Q 225.54 859.50 225.53 858.89
  L 225.44 853.03
  Q 225.43 852.50 225.97 852.50
  L 275.89 852.48
  Z"
    />
    <path fill="#146ec3" d="
  M 139.10 856.54
  Q 141.97 858.73 142.19 861.83
  C 143.20 875.94 138.52 893.19 134.41 906.79
  C 132.63 912.69 128.17 917.32 126.38 922.98
  C 124.78 928.03 126.52 933.14 126.07 937.01
  Q 125.49 941.96 120.83 951.43
  L 103.54 972.13
  L 88.19 966.74
  C 91.04 951.69 90.30 936.71 104.35 926.90
  C 108.76 923.82 110.23 915.61 112.37 910.77
  C 115.14 904.49 120.96 898.77 125.40 893.41
  C 133.57 883.53 135.66 869.14 139.10 856.54
  Z"
    />
    <path fill="#3486f6" d="
  M 288.11 860.82
  Q 288.89 862.66 288.54 864.43
  L 278.75 865.88
  Q 277.94 864.42 277.95 862.58
  L 288.11 860.82
  Z"
    />
    <path fill="#3486f6" d="
  M 313.50 861.01
  Q 314.30 863.13 313.75 864.48
  L 304.00 865.75
  L 303.31 862.55
  L 313.50 861.01
  Z"
    />
    <path fill="#3486f6" d="
  M 301.00 861.17
  Q 301.74 862.72 301.25 864.24
  L 291.25 865.67
  L 290.60 862.81
  L 301.00 861.17
  Z"
    />
    <path fill="#3486f6" d="
  M 222.18 861.58
  L 267.17 861.58
  Q 268.24 866.32 266.61 869.26
  L 224.44 869.28
  L 220.55 869.01
  Q 220.08 868.98 220.05 868.51
  Q 219.90 866.18 219.77 863.94
  Q 219.71 862.73 220.11 862.14
  Q 220.79 861.16 222.18 861.58
  Z"
    />
    <path fill="#a1c3fc" d="
  M 301.25 864.24
  L 301.26 866.62
  Q 296.57 868.04 291.60 867.85
  Q 291.80 866.85 291.25 865.67
  L 301.25 864.24
  Z"
    />
    <path fill="#a1c3fc" d="
  M 288.54 864.43
  L 288.73 866.52
  L 279.08 868.15
  L 278.75 865.88
  L 288.54 864.43
  Z"
    />
    <path fill="#a1c3fc" d="
  M 313.75 864.48
  L 314.25 866.60
  L 304.31 868.49
  Q 303.87 867.65 304.00 865.75
  L 313.75 864.48
  Z"
    />
    <path fill="#3486f6" d="
  M 288.73 866.52
  Q 289.65 867.88 289.71 869.83
  L 279.74 871.67
  Q 278.65 870.13 279.08 868.15
  L 288.73 866.52
  Z"
    />
    <path fill="#3486f6" d="
  M 314.25 866.60
  Q 314.92 868.24 314.77 870.04
  L 304.86 871.65
  Q 305.01 870.29 304.31 868.49
  L 314.25 866.60
  Z"
    />
    <path fill="#3486f6" d="
  M 301.26 866.62
  Q 302.55 867.76 302.24 870.01
  L 292.21 871.92
  L 291.60 867.85
  Q 296.57 868.04 301.26 866.62
  Z"
    />
    <path fill="#f74959" d="
  M 269.94 879.85
  L 224.77 879.77
  A 0.45 0.45 0.0 0 1 224.32 879.31
  L 224.44 869.28
  L 266.61 869.26
  L 269.35 868.98
  Q 270.00 868.92 270.11 869.57
  L 270.28 870.55
  Q 270.40 871.25 269.69 871.25
  L 227.84 871.25
  A 0.41 0.41 0.0 0 0 227.43 871.66
  L 227.39 877.20
  A 0.56 0.55 0.5 0 0 227.95 877.76
  L 269.74 877.72
  Q 270.09 877.72 270.22 878.05
  Q 270.48 878.73 269.94 879.85
  Z"
    />
    <path fill="#a1c3fc" d="
  M 289.71 869.83
  L 290.80 877.65
  Q 290.88 878.23 290.30 878.33
  L 280.89 879.90
  L 279.74 871.67
  L 289.71 869.83
  Z"
    />
    <path fill="#a1c3fc" d="
  M 302.24 870.01
  L 303.51 877.67
  Q 303.61 878.24 303.04 878.31
  L 293.90 879.46
  Q 293.30 879.54 293.22 878.94
  L 292.21 871.92
  L 302.24 870.01
  Z"
    />
    <path fill="#a1c3fc" d="
  M 314.77 870.04
  L 315.95 877.82
  Q 316.03 878.32 315.53 878.38
  L 306.51 879.53
  Q 306.04 879.59 305.97 879.12
  L 304.86 871.65
  L 314.77 870.04
  Z"
    />
    <path fill="#f8f4f1" d="
  M 120.83 951.43
  C 115.97 962.25 117.57 971.86 121.29 982.71
  L 118.61 990.27
  Q 118.47 990.68 118.14 990.39
  Q 109.40 982.65 103.54 972.13
  L 120.83 951.43
  Z"
    />
    <path fill="#23286b" d="
  M 88.19 966.74
  L 103.54 972.13
  Q 109.40 982.65 118.14 990.39
  Q 118.47 990.68 118.61 990.27
  L 121.29 982.71
  L 138.36 982.67
  C 141.93 985.75 145.30 988.56 149.62 990.87
  C 154.38 993.41 160.10 995.87 162.61 1000.16
  Q 162.96 1000.75 162.28 1000.75
  L 115.64 1000.75
  A 0.62 0.61 9.7 0 1 115.06 999.93
  L 116.27 996.64
  Q 116.50 996.01 115.86 995.80
  L 76.60 982.64
  A 0.57 0.57 0.0 0 1 76.33 981.75
  L 88.19 966.74
  Z"
    />
</svg>
